<svg xmlns:inkscape="http://www.inkscape.org/namespaces/inkscape" xmlns:sodipodi="http://sodipodi.sourceforge.net/DTD/sodipodi-0.dtd" xmlns="http://www.w3.org/2000/svg" xmlns:svg="http://www.w3.org/2000/svg" width="210mm" height="297mm" viewBox="0 0 210 297" version="1.1" id="svg50786" inkscape:version="1.2.2 (732a01da63, 2022-12-09)" sodipodi:docname="red_dress.svg">
  <sodipodi:namedview id="namedview50788" pagecolor="#ffffff" bordercolor="#000000" borderopacity="0.25" inkscape:showpageshadow="2" inkscape:pageopacity="0.0" inkscape:pagecheckerboard="0" inkscape:deskcolor="#d1d1d1" inkscape:document-units="mm" showgrid="false" inkscape:zoom="0.73851712" inkscape:cx="396.74097" inkscape:cy="670.26206" inkscape:window-width="1920" inkscape:window-height="1009" inkscape:window-x="-8" inkscape:window-y="-8" inkscape:window-maximized="1" inkscape:current-layer="layer1" fill="#000000"/>
  <defs id="defs50783" fill="#000000"/>
  <g inkscape:label="Layer 1" inkscape:groupmode="layer" id="layer1">
    <path d="m 162.42787,278.94508 c 0,0 2.12297,-17.47978 3.69446,-29.63847 1.59909,-12.18621 1.59909,-45.51905 -2.89488,-65.61809 -4.49405,-20.12654 -20.12654,-50.56452 -12.95818,-66.96903 7.14074,-16.40452 12.43431,-37.303056 8.98802,-46.566786 -3.44638,-9.26373 -8.32633,-11.110963 -5.29357,-25.1444 3.03278,-14.033451 4.76968,-25.392559 5.81737,-28.838887 1.0753,-3.446329 -2.1229,-2.64678 -8.46414,-5.045425 -6.34125,-2.371073 -9.26373,-5.0178518 -11.6348,-0.771977 -2.3987,4.218306 -24.62061,24.344868 -47.642032,34.380578 -23.021514,10.063273 -38.902198,13.233894 -36.255422,39.177851 2.64679,25.943956 9.539441,50.013146 2.122988,66.169536 -7.41654,16.12877 -18.251749,52.38418 -13.233908,88.11571 5.017855,35.73154 3.170578,46.04294 9.787532,46.04294 6.616954,0 76.480902,0 90.238682,0 13.75771,0 17.72788,-5.29355 17.72788,-5.29355" style="fill:#3d5f80;fill-opacity:1;fill-rule:nonzero;stroke:none;stroke-width:0.306341" id="path8628"/>
    <path d="m 89.917129,65.107287 c 0,0 39.425991,-33.05718 48.689721,-39.674133 3.16146,-2.257733 4.65948,-3.375877 4.75751,-3.375877 0.18671,0 -4.84938,4.172361 -13.22165,12.363895 -12.7101,12.434351 -40.225581,30.686115 -40.225581,30.686115" style="fill:#355068;fill-opacity:1;fill-rule:nonzero;stroke:none;stroke-width:0.306341" id="path8630"/>
    <path d="m 93.087794,55.871119 c 0,0 7.168366,-6.61694 14.309116,-12.186217 7.14083,-5.569263 22.49762,-18.003612 22.49762,-18.003612 0,0 -2.3986,2.64678 -14.0334,13.233906 -11.6348,10.587118 -22.773336,16.955923 -22.773336,16.955923" style="fill:#355068;fill-opacity:1;fill-rule:nonzero;stroke:none;stroke-width:0.306341" id="path8632"/>
    <path d="m 64.248927,112.50118 c 0,0 -0.248352,-12.46192 0.275276,-29.114582 0.07813,-2.570188 0.128518,-3.657698 0.156298,-3.657698 0.140717,0 -0.431574,32.77228 -0.431574,32.77228" style="fill:#355068;fill-opacity:1;fill-rule:nonzero;stroke:none;stroke-width:0.306341" id="path8634"/>
    <path d="m 73.788354,109.05486 c 0,0 1.047691,-7.1408 7.664645,-20.650407 1.844141,-3.755734 3.029644,-5.416087 3.513671,-5.416087 1.252957,0 -2.205661,11.166103 -11.178316,26.066494" style="fill:#355068;fill-opacity:1;fill-rule:nonzero;stroke:none;stroke-width:0.306341" id="path8636"/>
    <path d="m 67.970913,111.70163 c 0,0 1.847277,-7.6922 1.847277,-14.281581 0,-3.529034 0.37687,-5.550878 0.72596,-5.550878 0.309126,0 0.597428,1.550073 0.597428,4.99947 0,7.416499 -3.170665,14.832989 -3.170665,14.832989" style="fill:#355068;fill-opacity:1;fill-rule:nonzero;stroke:none;stroke-width:0.306341" id="path8638"/>
    <path d="m 84.899274,107.20762 c 0,0 -0.01743,-0.0425 0.125904,-0.27266 -0.08684,0.17766 -0.125904,0.27266 -0.125904,0.27266 m 0.125904,-0.27266 c 0.505389,-1.08751 2.518084,-5.28437 5.691784,-10.066348 3.694467,-5.541701 22.773338,-21.946216 22.773338,-21.946216 0,0 -2.39869,4.494009 -15.632582,17.976052 -10.182729,10.394122 -12.366927,13.264532 -12.83254,14.036512" style="fill:#355068;fill-opacity:1;fill-rule:nonzero;stroke:none;stroke-width:0.306341" id="path8640"/>
    <path d="m 104.22633,105.60853 c 0,0 3.97017,-7.664635 14.00588,-21.698086 4.28877,-5.982816 6.26769,-8.641862 6.53732,-8.641862 0.35863,0 -2.38645,4.82486 -6.7855,12.860175 -7.69216,14.033433 -10.33894,14.309143 -10.33894,14.309143 l -3.41876,3.17063" style="fill:#355068;fill-opacity:1;fill-rule:nonzero;stroke:none;stroke-width:0.306341" id="path8642"/>
    <path d="m 118.73151,107.53848 c -0.75981,0 -0.4993,-1.65424 -0.4993,-1.65424 0,0 4.49396,-9.539444 11.9105,-18.527463 2.22397,-2.70193 3.42484,-3.905847 3.7925,-3.905847 0.86055,0 -2.80917,6.549558 -8.56226,15.816353 -4.09573,6.616957 -5.87866,8.271197 -6.64144,8.271197" style="fill:#355068;fill-opacity:1;fill-rule:nonzero;stroke:none;stroke-width:0.306341" id="path8644"/>
    <path d="m 138.98059,107.43125 c -1.37236,0 -2.22093,-0.49931 -2.22093,-0.49931 0,0 9.26373,-7.140783 14.833,-13.482026 1.35404,-1.556216 2.03102,-2.208725 2.20564,-2.208725 0.54187,0 -3.7067,6.258541 -7.49921,11.444881 -2.85509,3.8997 -5.53254,4.74521 -7.3185,4.74521" style="fill:#355068;fill-opacity:1;fill-rule:nonzero;stroke:none;stroke-width:0.306341" id="path8646"/>
    <path d="m 151.59266,187.38299 c 0,0 1.57148,-4.49397 4.21825,-10.86283 1.28666,-3.08487 2.07392,-4.28877 2.42014,-4.28877 0.36471,0 0.24228,1.34485 -0.29697,3.24109 -1.0477,3.69447 -6.34125,11.91051 -6.34125,11.91051" style="fill:#355068;fill-opacity:1;fill-rule:nonzero;stroke:none;stroke-width:0.306341" id="path8648"/>
    <path d="m 153.68803,201.66457 c 0,0 2.92248,-5.81735 7.41645,-10.58711 1.01711,-1.07834 1.61446,-1.51947 1.88097,-1.51947 0.91291,0 -2.04327,5.15879 -5.32726,7.61262 l -3.97016,4.49396" style="fill:#355068;fill-opacity:1;fill-rule:nonzero;stroke:none;stroke-width:0.306341" id="path8650"/>
    <path d="m 154.62542,222.17712 c 0,0 2.37108,-4.76967 7.94035,-10.06324 1.30194,-1.24375 1.97588,-1.78293 2.14747,-1.78293 0.56009,0 -4.22139,5.76839 -10.08782,11.84617" style="fill:#355068;fill-opacity:1;fill-rule:nonzero;stroke:none;stroke-width:0.306341" id="path8652"/>
    <path d="m 62.125939,183.93671 c 0,0 -3.694453,-3.69446 -7.940328,-12.7101 -1.39999,-2.98371 -1.5807,-4.27957 -1.056898,-4.27957 1.050813,0 4.938232,5.23841 7.425747,12.49561 l 1.571479,4.49406" style="fill:#355068;fill-opacity:1;fill-rule:nonzero;stroke:none;stroke-width:0.306341" id="path8654"/>
    <path d="m 61.877848,203.78756 c 0,0 -4.494053,-3.44637 -7.692237,-7.41654 -3.170592,-3.97018 -3.694467,-11.63481 -3.694467,-11.63481 0,0 3.694467,4.76977 8.988019,15.08117 l 2.398685,3.97018" style="fill:#355068;fill-opacity:1;fill-rule:nonzero;stroke:none;stroke-width:0.306341" id="path8656"/>
    <path d="m 60.030571,221.51542 c 0,0 -5.569263,-1.57148 -8.216039,-4.24587 -2.646776,-2.61917 -5.017855,-13.7577 -5.017855,-13.7577 0,0 5.817441,10.86283 9.511908,14.30911 l 3.721986,3.69446" style="fill:#355068;fill-opacity:1;fill-rule:nonzero;stroke:none;stroke-width:0.306341" id="path8658"/>
    <path d="m 61.24368,132.57875 c 0.0087,-1.18862 -0.0058,-2.3956 -0.04342,-3.62403 28.933883,4.4634 58.33024,4.93518 87.36214,1.40917 0.0886,1.16102 0.21796,2.34659 0.38296,3.55353 -29.1422,3.53208 -58.645799,3.08792 -87.699153,-1.33867" style="fill:#1d2a3c;fill-opacity:1;fill-rule:nonzero;stroke:none;stroke-width:0.306341" id="path8660"/>
    <path d="m 160.97587,198.27647 c -3.18908,0.16239 -5.79599,-1.24985 -7.96179,-3.5076 -1.0845,-1.1273 -2.07392,-2.45382 -3.09711,-3.83235 -5.606,-7.47776 -14.89118,-15.12398 -12.15868,-26.05419 2.18419,-9.83052 8.73992,-18.02512 9.88869,-28.14046 0.0434,-1.91769 0.009,-3.81699 -0.0609,-5.72852 0.89147,1.84112 1.547,3.70055 1.97588,5.59071 0.75634,2.60693 0.75634,5.88172 -0.88225,8.06592 -12.56301,18.57339 -10.37881,36.05933 7.40116,47.40001 1.21311,1.54396 2.46294,3.03278 3.71895,4.46342 0.80846,1.13955 1.17333,1.74306 1.17333,1.74306" style="fill:#1d2a3c;fill-opacity:1;fill-rule:nonzero;stroke:none;stroke-width:0.306341" id="path8662"/>
    <path d="m 163.69612,190.18296 c -0.36472,1.51642 -2.19341,0.74765 -1.90233,0.26919 -0.009,-3.27791 0.37078,-6.64761 0.35256,-9.96528 -0.006,-1.10899 -0.0609,-2.2087 -0.26052,-3.2411 -0.50886,-1.43063 -0.98951,-3.35441 -1.85944,-3.54745 -2.45686,-0.81191 -5.44065,-2.10761 -7.62485,-3.85676 -0.72596,-0.58527 -1.36317,-1.21927 -1.86256,-1.90545 -3.14609,-5.37936 4.0682,-9.2454 6.65984,-13.58012 4.22443,-7.61253 -4.73911,-12.31481 -9.17793,-16.92837 -1.25296,-1.73083 -1.93297,-4.42354 -0.78153,-6.35036 2.12906,6.82832 9.55169,10.28076 13.31666,15.47325 5.01785,6.92018 -5.47131,10.79231 -7.18981,16.95589 -0.67386,2.21789 0.96796,3.85068 2.36794,5.13734 0.64346,0.58789 1.35404,1.13956 2.09233,1.65424 1.47962,1.04152 3.0787,1.95747 4.53383,2.8214 0.94661,0.57312 1.71241,2.01878 1.6696,3.431 0.34648,1.2284 0.55141,2.50889 0.64,3.81083 0.18409,2.60397 -0.0921,5.29669 -0.94966,8.06903 -0.0434,1.09058 -0.026,1.75228 -0.026,1.75228" style="fill:#1d2a3c;fill-opacity:1;fill-rule:nonzero;stroke:none;stroke-width:0.306341" id="path8664"/>
  </g>
</svg>