<svg version="1.1" x="0px" y="0px" width="1500px" height="3000px" viewBox="0 0 1500 3000" enable-background="new 0 0 1500 3000" xmlns="http://www.w3.org/2000/svg">
  <defs></defs>
  <g id="Layer_2" transform="matrix(1, 0, 0, 1, -3, 0)">
    <g id="body">
      <g id="colors">
        <path fill="#FEECE1" d="M664.408,1113.01c0,0-4.536,121.415-1.415,198.426c3.122,77.01-42.668,169.631-92.621,180.037
				c-49.953,10.407-156.511,21.662-156.511,21.662s118.539-16.615,157.552-50.801c39.012-34.187,48.912-71.807,58.278-126.963
				c9.365-55.156,19.834-217.67,19.834-217.67"></path>
        <path fill="#FEECE1" d="M437.543,1509.343c0,0-103.408,14.391-146.422,35.205s-113.78,88.806-130.431,180.386
				s-20.816,144.313-15.265,242.826c5.551,98.516,2.776,312.203,5.551,369.094c2.775,56.893-6.937,142.924-20.813,181.774
				c-13.876,38.85-12.488,73.538-8.325,147.081c4.163,73.543,24.976,269.193,24.976,269.193l-20.891-3.332
				c0,0-13.102-97.266-17.96-156.935c-4.857-59.669-11.792-145.7-4.162-178.306c7.63-32.607,20.295-130.801,24.976-154.021
				c4.681-23.222,6.244-90.886,4.856-115.861c-1.388-24.977-2.776-86.027-5.551-125.228s0-141.884-0.693-182.815
				s-0.348-174.488,0.693-208.137s9.02-119.332,30.527-165.816c21.507-46.482,59.667-95.047,80.48-105.453
				c20.813-10.407,73.54-20.817,97.129-23.592C359.809,1512.633,437.543,1509.343,437.543,1509.343z"></path>
        <path fill="#F2D6CB" d="M 1267.491 2931.57 L 1267.593 2930.648 C 1275.854 2855.384 1263.264 2671.819 1255.524 2611.187 C 1251.736 2581.54 1245.759 2542.156 1240.959 2510.509 L 1240.723 2508.973 C 1233.829 2463.605 1227.314 2420.753 1225.007 2396.197 C 1223.191 2376.744 1221.906 2339.645 1220.548 2300.364 L 1220.508 2299.28 C 1218.886 2251.623 1217.044 2197.605 1213.897 2174.063 C 1208.402 2132.746 1196.019 1995.261 1195.91 1993.989 C 1196.1 1984.171 1195.085 1973.601 1192.887 1962.484 L 1192.674 1961.411 L 1193.439 1961.468 C 1193.708 1951.225 1192.805 1938.669 1190.756 1924.142 C 1189.943 1909.946 1189.354 1896.961 1188.955 1884.375 C 1187.857 1850.543 1206.195 1803.22 1213.472 1785.863 C 1206.939 1795.211 1194.684 1814.748 1188.931 1837.019 L 1187.296 1836.876 C 1186.417 1825.239 1184.825 1813.741 1183.454 1805.171 C 1183.126 1820.206 1182.283 1850.429 1180.666 1864.175 L 1179.031 1864.273 C 1173.857 1842.909 1164.296 1824.982 1159.295 1816.543 C 1165.178 1836.531 1178.483 1884.255 1184.162 1925.117 L 1184.211 1926.396 L 1182.597 1926.687 C 1175.292 1906.952 1166.341 1889.55 1159.654 1877.717 C 1170.744 1902.632 1190.212 1952.548 1189.249 1994.062 C 1187.992 2048.461 1162.13 2116.972 1093.38 2131.022 C 1082.736 2133.193 1065.911 2135.777 1046.183 2135.777 C 995.38 2135.782 924.667 2118.855 876.287 2038.218 C 836.265 1971.491 825.924 1915.058 823.367 1886.613 C 823.634 1915.721 830.156 1974.269 870.558 2041.609 C 920.544 2124.947 993.534 2142.441 1045.967 2142.441 C 1062.289 2142.441 1078.692 2140.794 1094.712 2137.546 C 1155.185 2125.189 1178.983 2074.544 1187.784 2045.458 L 1189.409 2045.612 C 1192.215 2072.9 1183.394 2118.023 1173.118 2180.612 C 1167.094 2217.426 1155.898 2261.619 1148.296 2295.972 C 1136.939 2347.353 1125.539 2394.544 1124.669 2432.644 C 1123.254 2496.84 1151.955 2651.316 1173.26 2706.23 C 1192.273 2755.237 1201.978 2884.716 1214.672 2930.725 L 1211.347 2932.236 L 323.639 2931.569 L 362.313 2930.728 C 367.544 2864.011 369.988 2756.899 389.725 2707.564 C 411.625 2652.76 422.393 2500.638 420.942 2436.645 C 420.108 2398.553 409.382 2347.37 398.028 2295.998 C 390.415 2261.584 377.883 2227.352 371.827 2190.612 C 361.572 2128.155 358.093 2072.959 360.908 2045.612 L 362.533 2045.458 C 371.307 2074.544 395.06 2125.179 455.565 2137.546 C 471.64 2140.793 488.04 2142.441 504.31 2142.441 C 556.74 2142.441 629.734 2124.947 679.722 2041.609 C 721.216 1972.48 729.196 1913.271 730.353 1884.932 C 726.789 1912.743 714.74 1970.357 674.031 2038.218 C 625.628 2118.85 554.912 2135.777 504.112 2135.777 C 484.394 2135.782 467.552 2133.193 456.897 2131.022 C 388.18 2116.972 362.33 2048.461 361.074 1994.062 C 360.109 1952.415 379.747 1902.226 390.81 1877.408 C 384.259 1888.958 375.115 1906.601 367.681 1926.687 L 366.074 1926.308 L 366.157 1925.138 C 371.846 1884.2 385.139 1836.524 391.027 1816.53 C 386.03 1824.953 376.474 1842.857 371.289 1864.273 L 369.653 1864.175 C 368.035 1850.39 367.194 1820.04 366.862 1805.048 C 365.638 1812.682 363.955 1824.524 363.029 1836.876 L 361.39 1837.019 C 355.634 1814.732 343.366 1795.183 336.835 1785.843 C 344.098 1803.189 362.423 1850.55 361.322 1884.38 C 360.925 1896.945 360.34 1909.924 359.53 1924.071 C 357.504 1938.754 356.617 1951.308 356.884 1961.459 L 357.603 1961.403 L 357.394 1962.478 C 355.224 1973.682 354.219 1984.255 354.41 1993.898 L 353.979 1998.659 C 345.805 2088.088 339.554 2150.38 336.379 2174.062 C 333.338 2196.799 331.587 2247.02 329.897 2295.586 L 329.738 2300.135 C 328.377 2339.515 327.087 2376.707 325.269 2396.196 C 322.888 2421.526 316.012 2466.759 309.362 2510.509 L 308.977 2513.034 C 303.741 2547.526 298.329 2583.198 294.751 2611.186 C 287.017 2671.761 274.454 2855.272 282.725 2930.647 L 282.827 2931.569 L 125.923 2931.569 L 125.803 2930.88 C 120.437 2899.526 100.306 2692.213 104.357 2642.399 C 106.973 2609.92 116.31 2543.377 123.815 2489.911 L 124.258 2486.754 C 128.756 2454.962 132.047 2431.504 133.457 2419.087 C 137.729 2382.236 136.246 2275.555 132.079 2217.306 C 129.886 2186.508 130.034 2142.055 130.242 2080.526 L 130.247 2078.838 C 130.413 2025.791 130.617 1959.774 129.329 1881.66 C 126.537 1713.681 166.302 1585.617 233.111 1547.447 C 280.035 1520.644 328.84 1518.623 368.054 1516.996 C 384.077 1516.358 400.541 1515.704 413.86 1513.135 C 419.972 1511.937 427.559 1510.816 436.344 1509.52 L 437.542 1509.343 C 490.461 1501.58 579.028 1488.588 610.424 1428.148 C 641.466 1368.469 648.184 1176.065 649.506 1118.517 L 649.524 1117.702 L 900.788 1117.702 L 900.809 1118.517 C 901.71 1159.409 907.832 1366.519 939.845 1428.148 C 971.282 1488.588 1059.85 1501.581 1112.766 1509.343 L 1114.368 1509.577 C 1122.97 1510.853 1130.396 1511.956 1136.454 1513.135 C 1149.796 1515.71 1166.248 1516.36 1182.158 1516.991 C 1221.489 1518.625 1270.288 1520.648 1317.203 1547.447 C 1383.986 1585.602 1423.735 1713.664 1420.943 1881.66 C 1419.686 1958.045 1419.889 2023.058 1420.056 2075.301 L 1420.068 2079.289 C 1420.267 2138.9 1420.422 2185.987 1418.191 2217.306 C 1414.04 2275.365 1412.556 2382.01 1416.813 2419.087 C 1418.21 2431.007 1421.431 2454.027 1425.162 2480.688 L 1426.012 2486.754 C 1432.846 2535.17 1443.175 2608.334 1445.955 2642.4 C 1449.973 2691.767 1429.862 2899.352 1424.513 2930.878 L 1424.395 2931.571 L 1267.491 2931.571 L 1267.491 2931.57 Z M 573.308 2680.405 C 567.444 2686.962 562.175 2694.99 557.299 2704.779 C 552.203 2714.97 548.29 2726.264 545.668 2738.345 C 543.215 2750.435 542.212 2762.325 542.688 2773.684 C 543.04 2783.708 544.45 2793.388 546.888 2802.55 C 546.784 2793.189 546.855 2783.407 547.519 2773.744 C 548.369 2761.463 549.9 2750.329 552.2 2739.702 C 554.316 2729.158 557.432 2718.356 561.723 2706.702 C 565.408 2696.9 569.221 2688.243 573.308 2680.405 Z M 922.615 2437.442 C 926.551 2446.231 930.326 2455.455 934.017 2465.3 C 939.392 2479.341 944.541 2494.158 949.766 2510.591 C 959.216 2540.712 967.445 2571.912 974.222 2603.327 C 980.466 2631.682 985.998 2662.57 991.132 2697.751 C 994.702 2722.901 997.893 2749.101 1000.65 2775.85 C 1000.28 2749.484 998.698 2723.092 995.93 2697.173 C 992.645 2665.587 987.523 2633.529 980.71 2601.89 C 973.197 2567.938 964.564 2537.575 954.307 2509.081 C 944.071 2480.785 933.818 2457.569 922.615 2437.442 Z M 1296.192 2473.442 C 1296.59 2476.667 1297.858 2479.976 1299.919 2483.122 C 1302.2 2486.542 1305.298 2489.581 1308.88 2491.911 C 1312.397 2494.176 1316.23 2495.806 1320.271 2496.758 C 1322.876 2497.311 1325.206 2497.578 1327.373 2497.578 C 1328.445 2497.578 1329.49 2497.51 1330.503 2497.374 C 1327.495 2495.436 1324.597 2493.704 1321.775 2492.024 C 1318.591 2490.127 1315.523 2488.296 1312.544 2486.308 C 1309.36 2484.244 1306.44 2482.148 1303.615 2479.898 C 1301.534 2478.29 1299.563 2476.5 1297.477 2474.607 C 1297.054 2474.224 1296.626 2473.838 1296.192 2473.442 Z M 219.782 2497.374 C 220.791 2497.513 221.832 2497.578 222.922 2497.578 C 225.072 2497.578 227.396 2497.31 230.019 2496.753 C 234.084 2495.806 237.916 2494.176 241.396 2491.911 C 245.014 2489.586 248.11 2486.545 250.352 2483.122 C 252.419 2480.024 253.687 2476.721 254.082 2473.46 L 253.249 2474.21 C 251.009 2476.248 248.893 2478.176 246.694 2479.902 C 244.087 2481.98 241.167 2484.078 237.771 2486.314 C 234.752 2488.325 231.677 2490.154 228.421 2492.094 C 225.629 2493.752 222.76 2495.464 219.782 2497.374 Z M 726.881 1555.124 C 727.502 1555.797 728.126 1556.47 728.772 1557.113 C 730.694 1559.12 732.641 1561.15 734.633 1563.101 C 738.969 1567.302 743.136 1570.86 747.365 1573.974 C 752.778 1577.875 757.501 1580.61 762.218 1582.576 C 765.834 1583.984 770.667 1585.607 775.84 1585.607 C 777.275 1585.607 778.697 1585.481 780.07 1585.232 C 785.744 1584.484 790.033 1582.443 794.175 1580.47 C 798.24 1578.495 802.325 1576.208 806.662 1573.481 C 810.59 1571.077 814.192 1568.575 818.488 1565.554 C 819.988 1564.534 821.427 1563.448 822.862 1562.363 C 823.765 1561.684 824.679 1560.995 825.607 1560.323 C 825.538 1560.349 823.953 1560.942 823.953 1560.942 C 822.485 1561.514 821.029 1562.13 819.578 1562.745 L 817.371 1563.675 L 813.398 1565.46 C 810.426 1566.787 807.475 1568.108 804.545 1569.487 L 800.769 1571.151 C 797.745 1572.496 794.735 1573.831 791.724 1575.043 L 790.862 1575.372 C 786.848 1576.9 782.703 1578.482 779.284 1578.762 C 778.051 1578.926 777.081 1578.987 776.093 1578.987 C 772.514 1578.987 768.51 1578.173 764.513 1576.629 C 760.139 1575.046 755.452 1572.78 750.197 1569.704 C 745.67 1567.1 741.388 1564.349 736.261 1561.025 C 734.882 1560.183 733.513 1559.276 732.137 1558.364 C 730.371 1557.195 728.569 1556.005 726.696 1554.925 C 726.758 1554.991 726.82 1555.059 726.881 1555.124 Z M 888.236 1535.763 C 895.456 1536.245 903.256 1536.57 912.358 1536.766 C 917.945 1536.956 923.916 1537.041 931.742 1537.041 L 941.286 1537.016 C 950.974 1536.849 960.783 1536.679 970.486 1536.099 C 979.644 1535.588 987.41 1534.917 994.483 1534.018 C 987.49 1532.819 979.877 1531.949 970.515 1531.265 C 959.986 1530.459 949.404 1530.355 941.363 1530.355 C 932.684 1530.542 922.431 1530.875 912.179 1531.971 C 903.009 1532.877 895.264 1534.098 888.236 1535.763 Z M 555.791 1534.018 C 562.861 1534.916 570.634 1535.586 579.826 1536.099 C 589.506 1536.679 599.353 1536.852 608.876 1537.013 L 618.564 1537.041 C 626.368 1537.041 632.332 1536.956 637.906 1536.766 C 647.05 1536.57 654.856 1536.245 662.044 1535.763 C 655 1534.096 647.255 1532.87 638.103 1531.973 C 627.834 1530.874 617.606 1530.538 608.957 1530.355 C 600.912 1530.355 590.33 1530.459 579.803 1531.265 C 570.42 1531.948 562.792 1532.816 555.791 1534.018 Z"></path>
        <g>
          <linearGradient id="SVGID_1_" gradientUnits="userSpaceOnUse" x1="973.9482" y1="1305.4282" x2="602.0762" y2="1771.6531">
            <stop offset="0" style="stop-color:#F2D6CB"></stop>
            <stop offset="1" style="stop-color:#F1BFB3"></stop>
          </linearGradient>
          <path fill="url(#SVGID_1_)" d="M906.514,1234.425c0,0-5.204,114.475-37.466,183.16c-32.26,68.684,11.447,82.214,53.075,73.888
					c41.628-8.324,53.074-18.732,35.384-43.709c-17.692-24.977-33.303-71.807-38.506-112.393
					C913.798,1294.784,906.514,1234.425,906.514,1234.425z"></path>
          <linearGradient id="SVGID_2_" gradientUnits="userSpaceOnUse" x1="889.8213" y1="1386.3398" x2="728.865" y2="1627.7758">
            <stop offset="0" style="stop-color:#F2D6CB"></stop>
            <stop offset="1" style="stop-color:#F1BFB3"></stop>
          </linearGradient>
          <path fill="url(#SVGID_2_)" d="M726.696,1554.924c0,0,35.72,34.279,49.144,30.684c13.426-3.595,32.426-15.763,43.739-22.862
					c11.313-7.098,17.555-20.974-0.483-13.341c-18.038,7.632-35.383,13.877-54.809,9.02
					C744.861,1553.567,726.696,1554.924,726.696,1554.924z"></path>
          <linearGradient id="SVGID_3_" gradientUnits="userSpaceOnUse" x1="782.4404" y1="2633.8203" x2="779.3182" y2="2590.6294">
            <stop offset="0" style="stop-color:#F2D6CB"></stop>
            <stop offset="1" style="stop-color:#F1BFB3"></stop>
          </linearGradient>
          <path fill="url(#SVGID_3_)" d="M780.07,2569.1c-8.649-0.442-20.814,31.742-10.928,41.629s15.61,10.928,19.772,2.601
					C793.078,2605.004,800.363,2570.141,780.07,2569.1z"></path>
          <linearGradient id="SVGID_4_" gradientUnits="userSpaceOnUse" x1="848.2529" y1="1581.6338" x2="798.8544" y2="1266.4229">
            <stop offset="0" style="stop-color:#F2D6CB"></stop>
            <stop offset="1" style="stop-color:#F1BFB3"></stop>
          </linearGradient>
          <path fill="url(#SVGID_4_)" d="M664.408,1113.01c3.528,101.723,15.676,306.598,56.865,366.321
					c55.504,80.48,72.158-47.179,99.908-155.41c14.89-58.085,50.566-142.538,81.713-210.911H664.408z"></path>
          <linearGradient id="SVGID_5_" gradientUnits="userSpaceOnUse" x1="1038.0234" y1="2430.3574" x2="657.132" y2="2270.0913">
            <stop offset="0" style="stop-color:#F2D6CB"></stop>
            <stop offset="1" style="stop-color:#F1BFB3"></stop>
          </linearGradient>
          <path fill="url(#SVGID_5_)" d="M764.98,2150.225c-24.833,26.547-4.162,101.988,2.08,237.277
					c6.244,135.288,16.652,164.428,35.385,47.871S825.34,2085.703,764.98,2150.225z"></path>
        </g>
        <g>
          <g>
            <linearGradient id="SVGID_6_" gradientUnits="userSpaceOnUse" x1="539.918" y1="1598.1797" x2="556.5687" y2="1517.0078">
              <stop offset="0" style="stop-color:#F2D6CB"></stop>
              <stop offset="1" style="stop-color:#F1BFB3"></stop>
            </linearGradient>
            <path fill="url(#SVGID_6_)" d="M446.531,1559.118c28.782-3.474,58.279,0,164.428,16.65
						c106.149,16.651,52.034,87.417-8.327,62.44C542.273,1613.233,325.812,1573.687,446.531,1559.118z"></path>
            <linearGradient id="SVGID_7_" gradientUnits="userSpaceOnUse" x1="452.27" y1="1726.4043" x2="329.4689" y2="1903.3212">
              <stop offset="0" style="stop-color:#F2D6CB"></stop>
              <stop offset="1" style="stop-color:#F1BFB3"></stop>
            </linearGradient>
            <path fill="url(#SVGID_7_)" d="M386.171,1704.813c-49.357,13.592-55.946,76.073-39.546,104.067
						c16.402,27.996,19.613,115.086,19.53,116.258c-0.083,1.17,59.563-82.955,103.271-93.361
						C513.135,1821.369,529.785,1665.268,386.171,1704.813z"></path>
            <linearGradient id="SVGID_8_" gradientUnits="userSpaceOnUse" x1="756.707" y1="1786.2705" x2="429.2381" y2="2158.1387">
              <stop offset="0" style="stop-color:#F2D6CB"></stop>
              <stop offset="1" style="stop-color:#F1BFB3"></stop>
            </linearGradient>
            <path fill="url(#SVGID_8_)" d="M 518.338 2179.365 C 428.839 2200.178 411.147 2310.492 415.31 2387.502 C 416.753 2414.202 408.716 2351.372 397.362 2300 C 389.749 2265.586 379.216 2222.021 373.16 2185.281 C 362.905 2122.824 358.093 2072.961 360.908 2045.614 L 362.533 2045.46 C 371.307 2074.546 395.06 2125.181 455.565 2137.548 C 471.64 2140.795 488.04 2142.443 504.31 2142.443 C 556.74 2142.443 629.734 2124.949 679.722 2041.611 C 717.014 1979.483 727.209 1925.443 729.736 1894.552 C 757.028 1783.907 769.744 1892.316 738.965 1977.474 C 707.742 2063.85 607.837 2158.553 518.338 2179.365 Z M 363.321 1964.611 C 361.741 1974.603 360.851 1984.558 361.071 1994.062 C 362.327 2048.461 388.177 2116.972 456.894 2131.022 C 467.55 2133.193 484.392 2135.782 504.109 2135.777 C 554.909 2135.777 625.625 2118.85 674.028 2038.218 C 706.466 1984.148 720.678 1936.633 726.928 1905.466 C 695.502 2020.997 556.171 2105.066 457.977 2081.54 C 384.119 2063.845 367.155 1997.844 363.321 1964.611 Z"></path>
            <linearGradient id="SVGID_9_" gradientUnits="userSpaceOnUse" x1="567.4072" y1="2281.0469" x2="205.251" y2="2347.6504">
              <stop offset="0" style="stop-color:#F2D6CB"></stop>
              <stop offset="1" style="stop-color:#F1BFB3"></stop>
            </linearGradient>
            <path fill="url(#SVGID_9_)" d="M308.976,2513.035l0.385-2.525c6.65-43.75,13.525-88.982,15.907-114.313
						c1.818-19.488,3.108-56.681,4.469-96.061l0.159-4.549c1.69-48.566,3.441-98.787,6.482-121.524
						c3.175-23.683,9.425-85.975,17.6-175.403l0.431-4.761c-0.191-9.643,0.813-20.216,2.984-31.42l0.209-1.075l-0.719,0.056
						c-0.267-10.15,0.62-22.705,2.646-37.388c0.58-10.117,1.039-19.623,1.401-28.818c0.143-3.959,0.274-7.627,0.391-10.873
						c1.101-33.83-17.225-81.191-24.487-98.537c0,0-13.102-43.565-40.159-51.891c-27.059-8.327-27.059,83.255-8.326,137.369
						c18.732,54.117,6.244,54.117,0,280.986c-6.245,226.867-29.139,249.762-64.522,283.064s-27.058,49.951,10.407,116.557
						c33.725,59.953,33.717,280.106,21.232,379.641h27.361l-0.102-0.922c-8.271-75.375,4.292-258.886,12.026-319.461
						C298.327,2583.199,303.739,2547.527,308.976,2513.035z M250.352,2483.122c-2.242,3.423-5.338,6.464-8.956,8.789
						c-3.48,2.265-7.312,3.895-11.377,4.842c-2.624,0.558-4.947,0.825-7.097,0.825c-1.09,0-2.131-0.065-3.14-0.204
						c2.978-1.91,5.847-3.622,8.638-5.279c3.256-1.94,6.332-3.77,9.35-5.78c3.396-2.236,6.315-4.334,8.923-6.412
						c2.199-1.727,4.315-3.654,6.555-5.692l0.833-0.75C253.687,2476.721,252.419,2480.024,250.352,2483.122z"></path>
            <linearGradient id="SVGID_10_" gradientUnits="userSpaceOnUse" x1="63.6885" y1="2701.4092" x2="330.0992" y2="3063.561">
              <stop offset="0" style="stop-color:#F2D6CB"></stop>
              <stop offset="1" style="stop-color:#F1BFB3"></stop>
            </linearGradient>
            <path fill="url(#SVGID_10_)" d="M146.814,2934.902c0,0-26.017-172.756-22.895-232.073c3.122-59.32,54.115,23.936,61.4,112.393
						c7.285,88.459,18.732,118.639,18.732,118.639L146.814,2934.902z"></path>
            <linearGradient id="SVGID_11_" gradientUnits="userSpaceOnUse" x1="259.8931" y1="2620.2012" x2="639.3604" y2="3136.0396">
              <stop offset="0" style="stop-color:#F2D6CB"></stop>
              <stop offset="1" style="stop-color:#F1BFB3"></stop>
            </linearGradient>
          </g>
          <g>
            <linearGradient id="SVGID_12_" gradientUnits="userSpaceOnUse" x1="568.0688" y1="2096.8262" x2="141.3857" y2="1840.8158">
              <stop offset="0" style="stop-color:#F2D6CB"></stop>
              <stop offset="1" style="stop-color:#F3E0DA"></stop>
            </linearGradient>
            <path fill="url(#SVGID_12_)" d="M497.524,1496.677c0,0-49.953,33.302-99.905,38.505c-49.953,5.204-96.784,40.587-94.703,79.092
						c2.082,38.507-36.423,77.012-60.359,89.5c-23.936,12.488-11.448,91.579-1.041,173.793s13.529,308.043-4.163,426.682
						c-17.691,118.637-95.743,120.718-100.946,78.05s-6.244-148.817-8.325-181.078c-2.082-32.263-3.122-148.817-3.122-211.26
						c0-62.44-1.041-166.509,4.163-213.341c5.203-46.829,20.813-122.799,41.627-158.184c20.813-35.383,42.668-80.132,100.946-91.578
						c58.278-11.448,139.166-12.135,165.847-17.515C464.223,1503.961,497.524,1496.677,497.524,1496.677z"></path>
            <linearGradient id="SVGID_13_" gradientUnits="userSpaceOnUse" x1="297.4551" y1="2864.5781" x2="118.4589" y2="2581.5139">
              <stop offset="0" style="stop-color:#F2D6CB"></stop>
              <stop offset="1" style="stop-color:#F3E0DA"></stop>
            </linearGradient>
            <path fill="url(#SVGID_13_)" d="M148.548,2518.282c-36.89,12.679-31.221,101.986,12.487,169.631
						c43.709,67.646,42.668,145.696,54.116,190.445c11.448,44.749,49.953-69.726,14.57-196.688S181.85,2506.834,148.548,2518.282z"></path>
            <linearGradient id="SVGID_14_" gradientUnits="userSpaceOnUse" x1="624.3594" y1="1630.7041" x2="527.2288" y2="2031.7158">
              <stop offset="0" style="stop-color:#F2D6CB"></stop>
              <stop offset="1" style="stop-color:#F3E0DA"></stop>
            </linearGradient>
            <path fill="url(#SVGID_14_)" d="M628.303,1717.996c-53.345,14.55-51.339,77.703-140.145,131.82
						c-88.805,54.117-137.369,151.25-44.401,187.324c92.965,36.074,220.622-23.585,259.476-124.881
						C742.085,1810.963,719.883,1693.02,628.303,1717.996z"></path>
            <linearGradient id="SVGID_15_" gradientUnits="userSpaceOnUse" x1="747.7988" y1="2517.1816" x2="226.0651" y2="2109.23">
              <stop offset="0" style="stop-color:#F2D6CB"></stop>
              <stop offset="1" style="stop-color:#F3E0DA"></stop>
            </linearGradient>
            <path fill="url(#SVGID_15_)" d="M527.011,2217.525c-56.306,40.822-52.727,172.063-66.604,244.215
						c-13.876,72.151,77.707,72.151,99.906,122.104c22.2,49.952,91.58-97.13,94.354-216.462
						C657.441,2248.05,638.019,2137.046,527.011,2217.525z"></path>
            <linearGradient id="SVGID_16_" gradientUnits="userSpaceOnUse" x1="487.2954" y1="1707.5615" x2="250.5607" y2="1522.4551">
              <stop offset="0" style="stop-color:#F2D6CB"></stop>
              <stop offset="1" style="stop-color:#F3E0DA"></stop>
            </linearGradient>
            <path fill="url(#SVGID_16_)" d="M377.153,1606.989c-47.999-6.736-47.177,76.317,29.139,74.929
						C482.607,1680.53,535.337,1629.19,377.153,1606.989z"></path>
            <linearGradient id="SVGID_17_" gradientUnits="userSpaceOnUse" x1="664.7593" y1="1625.1826" x2="384.1654" y2="1405.782">
              <stop offset="0" style="stop-color:#F2D6CB"></stop>
              <stop offset="1" style="stop-color:#F3E0DA"></stop>
            </linearGradient>
            <path fill="url(#SVGID_17_)" d="M606.103,1547.324c-122.934-30.262-160.958-11.103-61.053,11.1
						C644.956,1580.627,696.295,1569.525,606.103,1547.324z"></path>
            <linearGradient id="SVGID_18_" gradientUnits="userSpaceOnUse" x1="722.7168" y1="1590.2422" x2="643.4647" y2="1528.2737">
              <stop offset="0" style="stop-color:#F2D6CB"></stop>
              <stop offset="1" style="stop-color:#F3E0DA"></stop>
            </linearGradient>
            <path fill="url(#SVGID_18_)" d="M681.032,1561.198c-16.65,0-2.776,15.265,19.425,19.429
						C722.659,1584.789,730.985,1561.198,681.032,1561.198z"></path>
          </g>
        </g>
        <g>
          <g>
            <linearGradient id="SVGID_19_" gradientUnits="userSpaceOnUse" x1="312.1689" y1="1598.1797" x2="328.8194" y2="1517.009" gradientTransform="matrix(-1 0 0 1 1322.9922 0)">
              <stop offset="0" style="stop-color:#F2D6CB"></stop>
              <stop offset="1" style="stop-color:#F1BFB3"></stop>
            </linearGradient>
            <path fill="url(#SVGID_19_)" d="M1104.211,1559.118c-28.783-3.474-58.279,0-164.429,16.65
						c-106.15,16.651-52.034,87.417,8.324,62.44C1008.468,1613.233,1224.93,1573.687,1104.211,1559.118z"></path>
            <linearGradient id="SVGID_20_" gradientUnits="userSpaceOnUse" x1="224.5215" y1="1726.4043" x2="101.7205" y2="1903.321" gradientTransform="matrix(-1 0 0 1 1322.9922 0)">
              <stop offset="0" style="stop-color:#F2D6CB"></stop>
              <stop offset="1" style="stop-color:#F1BFB3"></stop>
            </linearGradient>
            <path fill="url(#SVGID_20_)" d="M1164.569,1704.813c49.36,13.592,55.944,76.073,39.546,104.067
						c-16.398,27.996-19.609,115.086-19.529,116.258c0.082,1.17-59.563-82.955-103.27-93.361
						C1037.606,1821.369,1020.955,1665.268,1164.569,1704.813z"></path>
            <linearGradient id="SVGID_21_" gradientUnits="userSpaceOnUse" x1="528.959" y1="1786.2705" x2="201.4905" y2="2158.1382" gradientTransform="matrix(-1 0 0 1 1322.9922 0)">
              <stop offset="0" style="stop-color:#F2D6CB"></stop>
              <stop offset="1" style="stop-color:#F1BFB3"></stop>
            </linearGradient>
            <path fill="url(#SVGID_21_)" d="M 811.777 1977.473 C 780.996 1892.315 793.713 1783.907 821.006 1894.551 C 823.533 1925.442 833.73 1979.482 871.02 2041.61 C 921.008 2124.948 994.002 2142.442 1046.432 2142.442 C 1062.7 2142.442 1079.104 2140.795 1095.176 2137.547 C 1155.683 2125.18 1179.431 2074.545 1188.207 2045.459 L 1189.829 2045.613 C 1192.646 2072.96 1183.834 2124.823 1173.577 2187.28 C 1167.524 2224.02 1158.991 2254.251 1151.379 2288.665 C 1140.024 2340.037 1127.301 2387.221 1126.462 2425.312 C 1126.369 2429.552 1127.129 2434.844 1127.372 2439.754 C 1122.927 2424.929 1129.319 2412.868 1130.764 2386.168 C 1134.925 2309.158 1121.901 2200.177 1032.403 2179.364 C 942.904 2158.553 842.998 2063.85 811.777 1977.473 Z M 1092.763 2081.541 C 994.569 2105.066 855.236 2020.998 823.812 1905.467 C 830.063 1936.634 844.275 1984.149 876.711 2038.219 C 925.115 2118.851 995.833 2135.778 1046.632 2135.778 C 1066.348 2135.783 1083.194 2133.194 1093.844 2131.023 C 1162.562 2116.973 1188.416 2048.462 1189.668 1994.063 C 1189.888 1984.559 1189.002 1974.604 1187.42 1964.612 C 1183.586 1997.844 1166.622 2063.845 1092.763 2081.541 Z"></path>
            <linearGradient id="SVGID_22_" gradientUnits="userSpaceOnUse" x1="339.6592" y1="2281.0469" x2="-22.4976" y2="2347.6504" gradientTransform="matrix(-1 0 0 1 1322.9922 0)">
              <stop offset="0" style="stop-color:#F2D6CB"></stop>
              <stop offset="1" style="stop-color:#F1BFB3"></stop>
            </linearGradient>
            <path fill="url(#SVGID_22_)" d="M1255.99,2611.188c7.736,60.575,20.299,244.086,12.03,319.461l-0.106,0.922h27.363
						c-12.483-99.534-12.492-319.688,21.232-379.641c37.465-66.605,45.789-83.254,10.406-116.557s-58.277-56.197-64.521-283.064
						c-6.244-226.869-18.732-226.869,0-280.986c18.732-54.114,18.732-145.696-8.326-137.369
						c-27.058,8.325-40.159,51.891-40.159,51.891c-7.266,17.346-25.591,64.707-24.485,98.537c0.113,3.246,0.244,6.914,0.391,10.873
						c0.357,9.195,0.821,18.701,1.398,28.818c2.024,14.683,2.911,27.237,2.646,37.388l-0.72-0.056l0.212,1.075
						c2.171,11.204,3.171,21.777,2.983,31.42l0.431,4.761c8.171,89.429,14.424,151.721,17.599,175.403
						c3.041,22.737,4.792,72.958,6.483,121.524l0.154,4.549c1.367,39.38,2.651,76.572,4.472,96.061
						c2.383,25.33,9.257,70.563,15.907,114.313l0.387,2.525C1247.004,2547.527,1252.414,2583.199,1255.99,2611.188z
						 M1296.66,2473.46l0.832,0.75c2.241,2.038,4.359,3.966,6.554,5.692c2.61,2.078,5.529,4.176,8.927,6.412
						c3.017,2.011,6.09,3.84,9.35,5.78c2.789,1.657,5.66,3.369,8.636,5.279c-1.009,0.139-2.05,0.204-3.14,0.204
						c-2.15,0-4.472-0.268-7.098-0.825c-4.064-0.947-7.895-2.577-11.374-4.842c-3.619-2.325-6.717-5.366-8.959-8.789
						C1298.322,2480.024,1297.054,2476.721,1296.66,2473.46z"></path>
            <linearGradient id="SVGID_23_" gradientUnits="userSpaceOnUse" x1="-164.0605" y1="2701.4092" x2="102.3491" y2="3063.5596" gradientTransform="matrix(-1 0 0 1 1322.9922 0)">
              <stop offset="0" style="stop-color:#F2D6CB"></stop>
              <stop offset="1" style="stop-color:#F1BFB3"></stop>
            </linearGradient>
            <path fill="url(#SVGID_23_)" d="M1403.928,2934.902c0,0,26.017-172.756,22.895-232.073
						c-3.122-59.32-54.115,23.936-61.401,112.393c-7.284,88.459-18.731,118.639-18.731,118.639L1403.928,2934.902z"></path>
            <linearGradient id="SVGID_24_" gradientUnits="userSpaceOnUse" x1="32.144" y1="2620.1992" x2="411.6124" y2="3136.0388" gradientTransform="matrix(-1 0 0 1 1322.9922 0)">
              <stop offset="0" style="stop-color:#F2D6CB"></stop>
              <stop offset="1" style="stop-color:#F1BFB3"></stop>
            </linearGradient>
            <path fill="url(#SVGID_24_)" d="M 1178.497 2727.967 C 1178.497 2727.967 1172.351 2741.14 1152.928 2810.519 C 1133.505 2879.901 1066.746 2933.516 1066.746 2933.516 L 1209.767 2932.238 L 1178.497 2727.967 Z"></path>
          </g>
          <g>
            <linearGradient id="SVGID_25_" gradientUnits="userSpaceOnUse" x1="340.3198" y1="2096.8242" x2="-86.3624" y2="1840.8145" gradientTransform="matrix(-1 0 0 1 1322.9922 0)">
              <stop offset="0" style="stop-color:#F2D6CB"></stop>
              <stop offset="1" style="stop-color:#F3E0DA"></stop>
            </linearGradient>
            <path fill="url(#SVGID_25_)" d="M1053.217,1496.677c0,0,49.952,33.302,99.904,38.505c49.953,5.204,96.785,40.587,94.703,79.092
						c-2.08,38.507,36.425,77.012,60.359,89.5c23.937,12.488,11.448,91.579,1.042,173.793
						c-10.408,82.214-13.53,308.043,4.162,426.682c17.691,118.637,95.742,120.718,100.946,78.05
						c5.203-42.668,6.244-148.817,8.326-181.078c2.08-32.263,3.122-148.817,3.122-211.26c0-62.44,1.04-166.509-4.163-213.341
						c-5.203-46.829-20.813-122.799-41.628-158.184c-20.814-35.383-42.667-80.132-100.946-91.578
						c-58.277-11.448-139.167-12.135-165.847-17.515C1086.519,1503.961,1053.217,1496.677,1053.217,1496.677z"></path>
            <linearGradient id="SVGID_26_" gradientUnits="userSpaceOnUse" x1="69.7046" y1="2864.5781" x2="-109.2921" y2="2581.5132" gradientTransform="matrix(-1 0 0 1 1322.9922 0)">
              <stop offset="0" style="stop-color:#F2D6CB"></stop>
              <stop offset="1" style="stop-color:#F3E0DA"></stop>
            </linearGradient>
            <path fill="url(#SVGID_26_)" d="M1402.195,2518.282c36.888,12.679,31.221,101.986-12.489,169.631
						c-43.708,67.646-42.666,145.696-54.114,190.445s-49.953-69.726-14.57-196.688
						C1356.405,2554.707,1368.894,2506.834,1402.195,2518.282z"></path>
            <linearGradient id="SVGID_27_" gradientUnits="userSpaceOnUse" x1="396.6094" y1="1630.7051" x2="299.479" y2="2031.7162" gradientTransform="matrix(-1 0 0 1 1322.9922 0)">
              <stop offset="0" style="stop-color:#F2D6CB"></stop>
              <stop offset="1" style="stop-color:#F3E0DA"></stop>
            </linearGradient>
            <path fill="url(#SVGID_27_)" d="M922.439,1717.996c53.344,14.55,51.335,77.703,140.144,131.82
						c88.808,54.117,137.37,151.25,44.4,187.324c-92.964,36.074-220.622-23.585-259.473-124.881
						C808.655,1810.963,830.859,1693.02,922.439,1717.996z"></path>
            <linearGradient id="SVGID_28_" gradientUnits="userSpaceOnUse" x1="520.0508" y1="2517.1816" x2="-1.6812" y2="2109.2314" gradientTransform="matrix(-1 0 0 1 1322.9922 0)">
              <stop offset="0" style="stop-color:#F2D6CB"></stop>
              <stop offset="1" style="stop-color:#F3E0DA"></stop>
            </linearGradient>
            <path fill="url(#SVGID_28_)" d="M1023.728,2217.525c56.312,40.822,52.729,172.063,66.604,244.215
						c13.879,72.151-77.702,72.151-99.906,122.104c-22.195,49.952-91.579-97.13-94.353-216.462
						C893.301,2248.05,912.725,2137.046,1023.728,2217.525z"></path>
            <linearGradient id="SVGID_29_" gradientUnits="userSpaceOnUse" x1="259.5449" y1="1707.5615" x2="22.8121" y2="1522.4564" gradientTransform="matrix(-1 0 0 1 1322.9922 0)">
              <stop offset="0" style="stop-color:#F2D6CB"></stop>
              <stop offset="1" style="stop-color:#F3E0DA"></stop>
            </linearGradient>
            <path fill="url(#SVGID_29_)" d="M1173.587,1606.989c48.001-6.736,47.181,76.317-29.14,74.929
						C1068.137,1680.53,1015.402,1629.19,1173.587,1606.989z"></path>
            <linearGradient id="SVGID_30_" gradientUnits="userSpaceOnUse" x1="437.0112" y1="1625.1846" x2="156.4155" y2="1405.7825" gradientTransform="matrix(-1 0 0 1 1322.9922 0)">
              <stop offset="0" style="stop-color:#F2D6CB"></stop>
              <stop offset="1" style="stop-color:#F3E0DA"></stop>
            </linearGradient>
            <path fill="url(#SVGID_30_)" d="M944.636,1547.324c122.939-30.262,160.961-11.103,61.056,11.1
						C905.785,1580.627,854.446,1569.525,944.636,1547.324z"></path>
            <linearGradient id="SVGID_31_" gradientUnits="userSpaceOnUse" x1="494.9702" y1="1590.2441" x2="415.7162" y2="1528.2743" gradientTransform="matrix(-1 0 0 1 1322.9922 0)">
              <stop offset="0" style="stop-color:#F2D6CB"></stop>
              <stop offset="1" style="stop-color:#F3E0DA"></stop>
            </linearGradient>
            <path fill="url(#SVGID_31_)" d="M869.708,1561.198c16.649,0,2.779,15.265-19.425,19.429
						C828.079,1584.789,819.755,1561.198,869.708,1561.198z"></path>
          </g>
        </g>
      </g>
      <path id="line" fill="#AA4040" d="M 638.183 1531.145 C 647.924 1532.101 657.622 1533.559 667.156 1536.222 C 657.333 1537.013 647.633 1537.388 637.934 1537.596 C 628.234 1537.931 618.577 1537.887 608.877 1537.847 C 599.178 1537.68 589.479 1537.514 579.779 1536.93 C 570.082 1536.389 560.339 1535.599 550.598 1534.142 C 560.255 1532.185 569.997 1531.145 579.737 1530.436 C 589.478 1529.688 599.219 1529.522 608.96 1529.522 C 618.702 1529.729 628.442 1530.103 638.183 1531.145 Z M 544.854 2738.172 C 542.48 2749.867 541.357 2761.814 541.857 2773.722 C 542.273 2785.583 544.188 2797.405 547.811 2808.647 C 547.602 2796.824 547.561 2785.291 548.352 2773.803 C 549.142 2762.356 550.599 2751.033 553.014 2739.878 C 555.263 2728.68 558.551 2717.732 562.504 2706.99 C 566.543 2696.251 571.163 2685.677 576.95 2675.438 C 568.415 2683.595 561.839 2693.795 556.553 2704.408 C 551.224 2715.068 547.394 2726.472 544.854 2738.172 Z M 237.313 2485.617 C 231.193 2489.696 224.699 2493.11 217.581 2497.813 C 221.827 2498.814 226.073 2498.439 230.193 2497.566 C 234.316 2496.606 238.271 2494.939 241.85 2492.611 C 245.472 2490.28 248.677 2487.199 251.05 2483.578 C 253.464 2479.955 255.005 2475.793 255.046 2471.464 C 251.84 2474.336 249.092 2476.959 246.18 2479.247 C 243.307 2481.536 240.352 2483.618 237.313 2485.617 Z M 948.975 2510.844 C 958.547 2541.356 966.665 2572.243 973.411 2603.504 C 980.276 2634.684 985.687 2666.197 990.309 2697.873 C 994.805 2729.553 998.508 2761.399 1001.549 2793.367 C 1001.756 2761.232 1000.174 2729.053 996.759 2697.085 C 993.431 2665.071 988.313 2633.229 981.524 2601.717 C 974.573 2570.287 965.999 2539.108 955.092 2508.801 C 944.144 2478.542 931.323 2448.696 914.131 2421.511 C 921.33 2435.832 927.619 2450.609 933.238 2465.594 C 938.941 2480.496 944.144 2495.65 948.975 2510.844 Z M 941.355 1529.521 C 931.616 1529.728 921.831 1530.102 912.088 1531.144 C 902.39 1532.1 892.65 1533.558 883.116 1536.221 C 892.982 1537.012 902.641 1537.387 912.342 1537.595 C 922.04 1537.93 931.738 1537.886 941.437 1537.846 C 951.095 1537.679 960.793 1537.513 970.535 1536.929 C 980.234 1536.388 989.934 1535.598 999.674 1534.141 C 990.016 1532.184 980.276 1531.144 970.575 1530.435 C 960.836 1529.688 951.096 1529.521 941.355 1529.521 Z M 1304.136 2479.247 C 1301.179 2476.959 1298.476 2474.336 1295.228 2471.464 C 1295.27 2475.793 1296.85 2479.955 1299.225 2483.578 C 1301.64 2487.199 1304.847 2490.28 1308.424 2492.611 C 1312.046 2494.939 1316.001 2496.606 1320.078 2497.566 C 1324.201 2498.439 1328.489 2498.814 1332.693 2497.813 C 1325.615 2493.11 1319.123 2489.696 1313.005 2485.617 C 1309.924 2483.618 1307.01 2481.536 1304.136 2479.247 Z M 1431.058 2936.108 L 1430.185 2939.063 L 804.525 2939.063 L 745.791 2939.063 L 120.13 2939.063 L 119.256 2936.108 C 114.428 2920.084 92.865 2691.047 96.861 2641.802 C 99.566 2608.459 109.142 2540.4 116.841 2485.698 C 121.004 2456.311 124.543 2430.961 126.041 2418.261 C 130.123 2382.631 128.706 2275.147 124.626 2217.828 C 122.378 2186.566 122.544 2141.564 122.753 2079.25 C 122.919 2026.135 123.128 1960.027 121.837 1881.809 C 119.005 1711.056 160.218 1580.471 229.401 1540.923 C 277.94 1513.2 327.768 1511.161 367.855 1509.497 C 385.046 1508.788 399.866 1508.205 412.438 1505.749 C 419.015 1504.5 427.09 1503.293 436.414 1501.918 C 487.951 1494.387 574.117 1481.73 603.797 1424.702 C 638.14 1358.597 642.138 1111.288 642.179 1108.791 L 904.431 1108.791 L 904.431 1108.834 L 908.093 1108.791 C 908.135 1111.288 912.13 1358.597 946.518 1424.702 C 976.157 1481.73 1062.367 1494.387 1113.856 1501.918 C 1123.222 1503.293 1131.3 1504.5 1137.877 1505.749 C 1150.407 1508.205 1165.269 1508.788 1182.461 1509.497 C 1222.506 1511.161 1272.375 1513.2 1320.912 1540.923 C 1390.056 1580.471 1431.266 1711.056 1428.435 1881.809 C 1427.147 1960.028 1427.394 2026.135 1427.562 2079.25 C 1427.768 2141.564 1427.894 2186.566 1425.687 2217.828 C 1421.569 2275.146 1420.151 2382.631 1424.272 2418.261 C 1425.733 2430.96 1429.309 2456.311 1433.432 2485.698 C 1441.13 2540.399 1450.707 2608.459 1453.411 2641.802 C 1457.408 2691.048 1435.847 2920.084 1431.058 2936.108 Z M 356.822 2930.738 C 357.319 2891.858 370.439 2737.045 387.42 2683.459 C 405.231 2627.254 415.508 2500.918 414.115 2438.787 C 413.278 2401.448 402.625 2353.244 391.386 2302.251 C 383.725 2267.702 375.816 2231.983 369.782 2195.187 C 365.076 2166.462 355.121 2138.656 354.704 2114.887 C 352.122 2140.696 349.584 2164.34 347.793 2177.701 C 344.754 2200.637 340.298 2246.924 338.592 2296.877 C 337.218 2336.716 334.594 2377.053 332.721 2396.908 C 330.39 2421.925 323.77 2465.511 316.777 2511.636 C 311.407 2546.974 305.83 2583.525 302.209 2612.122 C 294.55 2671.981 282.102 2858.639 290.261 2930.739 L 356.822 2930.738 Z M 1248.105 2612.122 C 1244.443 2583.524 1238.905 2546.974 1233.535 2511.636 C 1226.544 2465.511 1219.925 2421.925 1217.551 2396.908 C 1215.722 2377.053 1214.388 2339.383 1213.014 2299.544 C 1211.308 2249.591 1206.186 2198.638 1203.145 2175.702 C 1201.357 2162.341 1194.86 2144.696 1192.238 2118.888 C 1191.819 2142.657 1184.572 2157.129 1177.201 2187.187 C 1168.319 2223.409 1163.258 2257.703 1155.596 2292.251 C 1144.316 2343.244 1130.993 2391.448 1130.159 2428.787 C 1128.785 2490.939 1149.709 2636.59 1170.852 2689.459 C 1191.751 2741.659 1214.995 2890.526 1215.495 2929.406 L 1260.013 2930.739 C 1268.171 2858.639 1255.724 2671.981 1248.105 2612.122 Z M 1445.127 2642.469 C 1442.423 2609.374 1432.892 2541.442 1425.188 2486.867 C 1421.071 2457.434 1417.489 2432.003 1415.989 2419.181 C 1411.745 2382.215 1413.201 2275.441 1417.363 2217.243 C 1419.571 2186.275 1419.445 2141.399 1419.236 2079.292 C 1419.071 2026.137 1418.822 1959.988 1420.111 1881.648 C 1422.899 1713.972 1383.313 1586.174 1316.79 1548.17 C 1270.005 1521.444 1221.26 1519.446 1182.128 1517.823 C 1165.311 1517.156 1149.452 1516.489 1136.298 1513.95 C 1129.887 1512.704 1121.895 1511.536 1112.651 1510.163 C 1059.576 1502.38 970.744 1489.35 939.109 1428.53 C 907.388 1367.465 901.018 1165.697 899.978 1118.533 L 650.339 1118.533 C 649.257 1165.697 642.93 1367.465 611.167 1428.53 C 579.571 1489.35 490.739 1502.38 437.664 1510.163 C 428.381 1511.536 420.39 1512.704 414.019 1513.95 C 400.864 1516.489 384.963 1517.156 368.188 1517.823 C 329.017 1519.446 280.312 1521.444 233.523 1548.17 C 167.003 1586.174 127.373 1713.972 130.162 1881.648 C 131.453 1959.988 131.243 2026.136 131.079 2079.292 C 130.87 2141.399 130.703 2186.275 132.91 2217.243 C 137.073 2275.441 138.571 2382.216 134.285 2419.181 C 132.827 2432.002 129.245 2457.434 125.083 2486.867 C 117.424 2541.441 107.851 2609.374 105.186 2642.469 C 101.107 2692.63 121.587 2901.306 126.624 2930.74 L 281.895 2930.74 C 273.736 2856.39 286.058 2672.69 293.924 2611.082 C 297.589 2582.402 303.166 2545.768 308.536 2510.385 C 315.527 2464.388 322.105 2420.931 324.436 2396.12 C 326.268 2376.515 327.558 2338.965 328.932 2299.251 C 330.68 2249.133 332.428 2197.305 335.55 2173.956 C 341.004 2133.284 353.201 1997.786 353.575 1993.917 C 353.368 1983.509 354.533 1972.851 356.573 1962.321 L 356.073 1962.362 C 355.699 1951.122 356.781 1937.886 358.696 1924.024 C 359.363 1912.37 360.029 1898.84 360.486 1884.353 C 361.818 1843.432 334.302 1781.948 333.179 1779.493 C 334.427 1781.034 354.367 1806.511 362.194 1836.815 C 363.609 1817.999 366.855 1799.765 367.522 1796.311 C 367.522 1796.311 368.272 1845.305 370.477 1864.079 C 377.512 1835.024 392.622 1812.254 393.58 1810.88 C 392.789 1813.546 374.017 1874.612 366.981 1925.232 C 366.939 1925.607 366.939 1926.021 366.898 1926.398 C 379.343 1892.763 396.371 1866.287 398.492 1863.041 C 396.161 1867.662 360.611 1938.301 361.902 1994.044 C 363.152 2048.114 388.836 2116.26 457.061 2130.207 C 500.146 2138.986 607.419 2147.566 673.316 2037.794 C 728.805 1945.295 731.01 1871.448 731.01 1867.121 C 731.427 1871.658 737.004 1947.795 680.433 2042.037 C 630.399 2125.459 557.51 2143.276 504.308 2143.276 C 484.578 2143.276 467.551 2140.82 455.396 2138.365 C 403.444 2127.747 374.556 2088.201 361.734 2045.7 C 358.779 2074.424 367.824 2131.954 377.98 2193.814 C 384.018 2230.445 391.885 2266.036 399.502 2300.463 C 410.865 2351.871 421.574 2400.451 422.439 2438.626 C 423.894 2502.853 417.518 2620.655 399.162 2677.208 C 382.206 2729.447 366.936 2890.818 366.478 2929.406 L 745.79 2930.74 L 804.524 2930.74 L 1207.168 2929.407 C 1206.669 2890.819 1183.55 2743.535 1163.151 2692.542 C 1141.214 2637.759 1120.417 2492.855 1121.833 2428.626 C 1122.706 2390.45 1133.446 2341.871 1144.812 2290.463 C 1152.429 2256.035 1160.295 2220.444 1166.292 2183.814 C 1176.446 2121.954 1191.532 2074.423 1188.576 2045.7 C 1175.714 2088.201 1146.827 2127.747 1094.874 2138.365 C 1082.76 2140.82 1065.735 2143.276 1045.963 2143.276 C 992.762 2143.276 919.873 2125.459 869.839 2042.037 C 811.517 1944.839 823.464 1866.911 823.464 1866.911 C 823.382 1867.662 820.094 1942.925 876.998 2037.794 C 942.853 2147.566 1050.166 2138.986 1093.207 2130.207 C 1161.478 2116.26 1187.162 2048.114 1188.411 1994.044 C 1189.703 1938.301 1154.152 1867.662 1151.819 1863.041 C 1153.901 1866.287 1170.925 1892.764 1183.374 1926.398 C 1183.374 1926.021 1183.332 1925.607 1183.332 1925.232 C 1176.296 1874.613 1157.522 1813.546 1156.734 1810.88 C 1157.689 1812.254 1172.8 1835.025 1179.837 1864.079 C 1182.045 1845.306 1182.791 1796.311 1182.791 1796.311 C 1183.414 1799.765 1186.702 1817.999 1188.122 1836.815 C 1195.946 1806.51 1215.886 1781.034 1217.135 1779.493 C 1216.008 1781.948 1188.454 1843.432 1189.785 1884.353 C 1190.243 1898.84 1190.909 1912.37 1191.576 1924.024 C 1193.532 1937.886 1194.614 1951.122 1194.239 1962.362 L 1193.699 1962.321 C 1195.78 1972.85 1196.943 1983.509 1196.735 1993.917 C 1197.068 1997.786 1209.309 2133.284 1214.719 2173.956 C 1217.841 2197.305 1219.63 2249.133 1221.337 2299.251 C 1222.711 2338.965 1223.999 2376.515 1225.833 2396.12 C 1228.163 2420.931 1234.785 2464.388 1241.776 2510.385 C 1247.146 2545.768 1252.683 2582.403 1256.346 2611.082 C 1264.211 2672.69 1276.578 2856.391 1268.418 2930.74 L 1423.689 2930.74 C 1428.688 2901.306 1449.209 2692.63 1445.127 2642.469 Z M 817.055 1562.907 C 812.73 1564.861 808.437 1566.736 804.193 1568.734 C 799.908 1570.605 795.661 1572.562 791.413 1574.269 C 787.251 1575.852 782.755 1577.642 779.218 1577.932 L 779.134 1577.932 L 778.884 1577.973 C 774.515 1578.556 769.561 1577.683 764.815 1575.852 C 759.986 1574.103 755.242 1571.688 750.62 1568.984 C 745.916 1566.279 741.338 1563.32 736.717 1560.325 C 732.014 1557.453 727.601 1553.955 722.314 1551.834 C 724.479 1553.54 726.227 1555.746 728.184 1557.703 C 730.099 1559.701 732.055 1561.741 734.052 1563.698 C 738.048 1567.567 742.294 1571.272 746.874 1574.644 C 751.494 1577.973 756.407 1581.055 761.9 1583.343 C 767.354 1585.468 773.597 1587.256 780.218 1586.051 C 785.916 1585.301 790.164 1583.303 794.534 1581.222 C 798.909 1579.098 803.071 1576.725 807.108 1574.187 C 811.185 1571.688 815.06 1568.984 818.97 1566.235 C 822.884 1563.572 826.462 1560.407 830.543 1558.078 C 828.127 1558.327 825.881 1559.367 823.673 1560.158 C 821.425 1561.032 819.263 1561.989 817.055 1562.907 Z M 794.827 2604.672 C 793.411 2621.321 776.761 2632.395 767.06 2615.745 C 757.362 2599.094 766.895 2559.34 787.874 2567.206 C 798.989 2571.368 796.201 2588.02 794.827 2604.672 Z M 790.306 2583.494 C 790.306 2577.947 785.103 2570.666 779.549 2575.519 C 778.767 2576.206 770.876 2582.803 771.916 2599.456 C 772.958 2616.105 777.466 2615.064 783.363 2612.983 C 789.266 2610.903 790.306 2589.046 790.306 2583.494 Z"></path>
    </g>
    <g id="nipple">
      <linearGradient id="SVGID_32_" gradientUnits="userSpaceOnUse" x1="449.106" y1="1947.2402" x2="454.6557" y2="1963.8934">
        <stop offset="0" style="stop-color:#F2D6CB"></stop>
        <stop offset="1" style="stop-color:#F49090"></stop>
      </linearGradient>
      <path fill="url(#SVGID_32_)" d="M456.521,1945.253c6.077,0.873,8.992,3.454,8.701,7.577c-0.5,6.95-10.116,16.816-18.441,16.816
			c-1.291,0-2.539-0.252-3.623-0.792c-3.912-1.869-3.204-6.952-2.705-9.074c1.623-7.076,7.909-14.651,14.735-14.651
			C455.607,1945.129,456.064,1945.17,456.521,1945.253z"></path>
      <linearGradient id="SVGID_33_" gradientUnits="userSpaceOnUse" x1="481.6143" y1="1981.2432" x2="458.026" y2="1957.657">
        <stop offset="0" style="stop-color:#F2D6CB"></stop>
        <stop offset="1" style="stop-color:#F1BFB3"></stop>
      </linearGradient>
      <path fill="url(#SVGID_33_)" d="M500.646,1943.878c2.372,16.651-10.24,38.09-28.265,47.831
			c-6.868,4.369-14.653,6.658-22.479,6.658c-5.163,0-10.116-1.039-14.403-2.956c-4.329-1.87-8.034-4.657-10.782-8.114
			c-5.037-6.455-6.493-14.82-4.163-24.187c6.827-27.725,29.555-42.249,48.454-42.249c2.374,0,4.703,0.246,6.869,0.707
			C490.406,1924.69,498.981,1932.389,500.646,1943.878z M469.386,1953.162c0.207-3.039-0.543-10.28-12.24-12.032
			c-9.865-1.535-18.649,8.537-20.772,17.735c-1.457,6.367,0.417,11.529,4.995,13.737c1.625,0.833,3.456,1.207,5.413,1.207
			C456.604,1973.81,468.636,1962.822,469.386,1953.162z"></path>
      <linearGradient id="SVGID_34_" gradientUnits="userSpaceOnUse" x1="440.1533" y1="1956.875" x2="413.096" y2="2006.827">
        <stop offset="0" style="stop-color:#F2D6CB"></stop>
        <stop offset="1" style="stop-color:#F1BFB3"></stop>
      </linearGradient>
      <path fill="url(#SVGID_34_)" d="M446.781,1969.646l-11.281,25.765c0,0-24.966-7.117-14.945-32.301l19.898-3.33
			C440.454,1959.78,437.317,1968.066,446.781,1969.646z"></path>
      <linearGradient id="SVGID_35_" gradientUnits="userSpaceOnUse" x1="476.8965" y1="1930.5156" x2="456.7761" y2="1986.017">
        <stop offset="0" style="stop-color:#F2D6CB"></stop>
        <stop offset="1" style="stop-color:#F1BFB3"></stop>
      </linearGradient>
      <path fill="url(#SVGID_35_)" d="M469.009,1920.861l-12.488,24.392l11.518,3.081l24.977-20.814
			C493.016,1927.52,486.629,1922.527,469.009,1920.861z"></path>
      <path fill="#AA4040" d="M457.146,1941.13c-9.865-1.535-18.649,8.537-20.772,17.735c-1.457,6.367,0.417,11.529,4.995,13.737
			c1.625,0.833,3.456,1.207,5.413,1.207c9.823,0,21.854-10.987,22.604-20.647C469.593,1950.123,468.843,1942.882,457.146,1941.13z
			 M446.781,1969.646c-1.291,0-2.539-0.252-3.623-0.792c-3.912-1.869-3.204-6.952-2.705-9.074
			c1.623-7.076,7.909-14.651,14.735-14.651c0.418,0,0.875,0.041,1.333,0.124c6.077,0.873,8.992,3.454,8.701,7.577
			C464.722,1959.78,455.106,1969.646,446.781,1969.646z M504.769,1943.257c-1.917-13.157-11.864-22.315-28.018-25.771
			c-21.438-4.536-51.95,10.947-60.234,44.623c-3.329,13.448,0.833,22.521,4.914,27.725c6.328,8.078,16.692,12.696,28.473,12.696
			c8.616,0,17.15-2.536,24.559-7.198C493.819,1984.883,507.391,1961.529,504.769,1943.257z M472.382,1991.709
			c-6.868,4.369-14.653,6.658-22.479,6.658c-5.163,0-10.116-1.039-14.403-2.956c-4.329-1.87-8.034-4.657-10.782-8.114
			c-5.037-6.455-6.493-14.82-4.163-24.187c6.827-27.725,29.555-42.249,48.454-42.249c2.374,0,4.703,0.246,6.869,0.707
			c14.528,3.122,23.104,10.82,24.769,22.31C503.018,1960.529,490.406,1981.968,472.382,1991.709z"></path>
    </g>
    <g id="nipple_1_">
      <linearGradient id="SVGID_36_" gradientUnits="userSpaceOnUse" x1="220.2407" y1="1947.2412" x2="225.7907" y2="1963.8951" gradientTransform="matrix(-1 0 0 1 1332.5664 0)">
        <stop offset="0" style="stop-color:#F2D6CB"></stop>
        <stop offset="1" style="stop-color:#F49090"></stop>
      </linearGradient>
      <path fill="url(#SVGID_36_)" d="M1104.909,1945.253c-6.077,0.873-8.993,3.454-8.699,7.577c0.497,6.95,10.114,16.816,18.439,16.816
			c1.293,0,2.537-0.252,3.622-0.792c3.915-1.869,3.207-6.952,2.703-9.074c-1.621-7.076-7.906-14.651-14.732-14.651
			C1105.823,1945.129,1105.365,1945.17,1104.909,1945.253z"></path>
      <linearGradient id="SVGID_37_" gradientUnits="userSpaceOnUse" x1="252.75" y1="1981.2451" x2="229.1614" y2="1957.6586" gradientTransform="matrix(-1 0 0 1 1332.5664 0)">
        <stop offset="0" style="stop-color:#F2D6CB"></stop>
        <stop offset="1" style="stop-color:#F1BFB3"></stop>
      </linearGradient>
      <path fill="url(#SVGID_37_)" d="M1085.551,1921.568c2.167-0.461,4.496-0.707,6.87-0.707c18.899,0,41.627,14.524,48.457,42.249
			c2.325,9.366,0.87,17.731-4.162,24.187c-2.749,3.457-6.457,6.244-10.786,8.114c-4.288,1.917-9.24,2.956-14.402,2.956
			c-7.825,0-15.611-2.289-22.48-6.658c-18.024-9.741-30.635-31.18-28.261-47.831
			C1062.448,1932.389,1071.022,1924.69,1085.551,1921.568z M1114.649,1973.81c1.959,0,3.79-0.374,5.415-1.207
			c4.578-2.208,6.447-7.37,4.992-13.737c-2.123-9.198-10.907-19.271-20.773-17.735c-11.695,1.752-12.448,8.993-12.236,12.032
			C1092.796,1962.822,1104.828,1973.81,1114.649,1973.81z"></path>
      <linearGradient id="SVGID_38_" gradientUnits="userSpaceOnUse" x1="211.29" y1="1956.875" x2="184.2326" y2="2006.8274" gradientTransform="matrix(-1 0 0 1 1332.5664 0)">
        <stop offset="0" style="stop-color:#F2D6CB"></stop>
        <stop offset="1" style="stop-color:#F1BFB3"></stop>
      </linearGradient>
      <path fill="url(#SVGID_38_)" d="M1114.649,1969.646l11.28,25.765c0,0,24.965-7.117,14.948-32.301l-19.903-3.33
			C1120.975,1959.78,1124.112,1968.066,1114.649,1969.646z"></path>
      <linearGradient id="SVGID_39_" gradientUnits="userSpaceOnUse" x1="248.0332" y1="1930.5156" x2="227.9132" y2="1986.016" gradientTransform="matrix(-1 0 0 1 1332.5664 0)">
        <stop offset="0" style="stop-color:#F2D6CB"></stop>
        <stop offset="1" style="stop-color:#F1BFB3"></stop>
      </linearGradient>
      <path fill="url(#SVGID_39_)" d="M1092.421,1920.861l12.488,24.392l-11.52,3.081l-24.977-20.814
			C1068.413,1927.52,1074.803,1922.527,1092.421,1920.861z"></path>
      <path fill="#AA4040" d="M1092.047,1953.162c0.749,9.66,12.781,20.647,22.603,20.647c1.959,0,3.79-0.374,5.415-1.207
			c4.578-2.208,6.447-7.37,4.992-13.737c-2.123-9.198-10.907-19.271-20.773-17.735
			C1092.588,1942.882,1091.835,1950.123,1092.047,1953.162z M1096.21,1952.83c-0.294-4.123,2.622-6.704,8.699-7.577
			c0.456-0.083,0.914-0.124,1.333-0.124c6.826,0,13.111,7.575,14.732,14.651c0.504,2.122,1.212,7.205-2.703,9.074
			c-1.085,0.54-2.329,0.792-3.622,0.792C1106.324,1969.646,1096.707,1959.78,1096.21,1952.83z M1086.966,1995.332
			c7.411,4.662,15.944,7.198,24.562,7.198c11.781,0,22.147-4.618,28.473-12.696c4.082-5.203,8.244-14.276,4.91-27.725
			c-8.281-33.676-38.794-49.159-60.229-44.623c-16.155,3.455-26.102,12.613-28.017,25.771
			C1054.037,1961.529,1067.611,1984.883,1086.966,1995.332z M1060.786,1943.878c1.662-11.489,10.236-19.188,24.765-22.31
			c2.167-0.461,4.496-0.707,6.87-0.707c18.899,0,41.627,14.524,48.457,42.249c2.325,9.366,0.87,17.731-4.162,24.187
			c-2.749,3.457-6.457,6.244-10.786,8.114c-4.288,1.917-9.24,2.956-14.402,2.956c-7.825,0-15.611-2.289-22.48-6.658
			C1071.022,1981.968,1058.412,1960.529,1060.786,1943.878z"></path>
    </g>
  </g>
  <g id="Layer_1" display="none" transform="matrix(1, 0, 0, 1, -3, 0)">
    <g id="left" display="inline">
      <g id="colors_1_">
        <path fill="#F2D6CB" d="M775.136,455.055v885.767c0,0-78.223-2.331-139.521-48.768c0,0-29.547-24.55-65.796-71.895
				c0,0-53.505-61.067-71.449-221.088v-3.218c0,0-7.96,7.433-24.671-6.968c0,0-12.785-16.029-18.84-34.846
				c-6.056-18.816-19.514-51.919-25.231-61.674c-5.72-9.757-10.766-40.42-11.439-58.54c-0.672-18.12,3.365-46.345,21.867-51.223
				c18.505-4.878,36.336,0.697,36.336,0.697l12.112,6.272c0,0,6.054-113.944,13.12-149.138
				c7.064-35.194,14.804-40.769,36.334-72.827c21.531-32.057,53.828-63.767,99.584-77.355
				c45.753-13.59,119.766-35.194,119.766-35.194H775.136z"></path>
        <linearGradient id="SVGID_40_" gradientUnits="userSpaceOnUse" x1="766.3535" y1="799.8491" x2="503.1267" y2="538.2683">
          <stop offset="0" style="stop-color:#F2D6CB"></stop>
          <stop offset="1" style="stop-color:#F1BFB3"></stop>
        </linearGradient>
        <path fill="url(#SVGID_40_)" d="M775.136,455.055v26.917c-48.813,0-143.631,39.721-182.568,85.518
				c-52.93,62.258-67.284,98.032-76.257,186.307c-5.757,56.648-11.883,112.527-22.884,128.354
				c-2.037-41.247-4.179-83.802-4.767-95.48c0.995-17.955,6.564-114.374,12.961-146.238c7.064-35.194,14.804-40.769,36.334-72.827
				c21.531-32.057,58.875-74.568,104.628-88.158c45.755-13.59,114.722-24.392,114.722-24.392H775.136z"></path>
        <linearGradient id="SVGID_41_" gradientUnits="userSpaceOnUse" x1="729.4497" y1="970.9219" x2="474.0149" y2="1312.7528">
          <stop offset="0" style="stop-color:#F2D6CB"></stop>
          <stop offset="1" style="stop-color:#F1BFB3"></stop>
        </linearGradient>
        <path fill="url(#SVGID_41_)" d="M775.136,1340.822c0,0-78.223-2.331-139.521-48.768c0,0-29.547-24.55-65.796-71.895
				c0,0-53.505-61.067-71.449-221.088v-3.218l-6.28-92.454l-2.691-14.868l10.766-41.814c0,0-9.87,95.708,39.475,155.179
				c49.343,59.466,57.418,61.328,62.8,115.218c5.382,53.896,40.372,148.675,88.818,179.339
				c26.439,16.732,59.002,19.345,83.879,18.12V1340.822z"></path>
        <linearGradient id="SVGID_42_" gradientUnits="userSpaceOnUse" x1="731.9121" y1="945.2256" x2="458.4996" y2="1311.1149">
          <stop offset="0" style="stop-color:#F2D6CB"></stop>
          <stop offset="1" style="stop-color:#F3E0DA"></stop>
        </linearGradient>
        <path fill="url(#SVGID_42_)" d="M775.136,1340.822c0,0-78.223-2.331-139.521-48.768c0,0-29.547-24.55-65.796-71.895
				c0,0-53.094-60.642-71.235-219.324l-0.214-4.982l-8.074-180.729c0,0,12.559,38.098,14.355,84.557
				c1.794,46.464,0.896,169.114,51.137,268.542c50.239,99.424,112.144,133.806,163.279,150.532
				c17.072,5.581,37.042,8.259,56.071,9.354V1340.822z"></path>
        <linearGradient id="SVGID_43_" gradientUnits="userSpaceOnUse" x1="391.2964" y1="920.0649" x2="474.3334" y2="893.7362">
          <stop offset="0" style="stop-color:#F2D6CB"></stop>
          <stop offset="1" style="stop-color:#F1BFB3"></stop>
        </linearGradient>
        <path fill="url(#SVGID_43_)" d="M490.519,876.683c0,0,8.075-45.996-22.204-52.268c-30.278-6.272-38.353,29.967-24.223,46.693
				c14.13,16.726,5.382-4.181,11.439,0.697c6.054,4.878-3.365,3.485,1.345,34.844c4.709,31.361,37.008,77.356,39.025,47.389
				C497.919,924.072,490.519,876.683,490.519,876.683z"></path>
        <linearGradient id="SVGID_44_" gradientUnits="userSpaceOnUse" x1="418.542" y1="836.9009" x2="455.3759" y2="828.1148">
          <stop offset="0" style="stop-color:#F2D6CB"></stop>
          <stop offset="1" style="stop-color:#F1BFB3"></stop>
        </linearGradient>
        <path fill="url(#SVGID_44_)" d="M421.888,865.184c0,0,7.064-46.692,24.896-51.571c17.831-4.878,35.662,5.923,39.026,11.499
				c3.363,5.575-6.393-21.256-15.478-24.74c-9.083-3.485-28.596-1.394-38.353,11.499
				C422.224,824.764,415.832,834.521,421.888,865.184z"></path>
        <linearGradient id="SVGID_45_" gradientUnits="userSpaceOnUse" x1="463.543" y1="782.8442" x2="475.1864" y2="795.1725">
          <stop offset="0" style="stop-color:#F2D6CB"></stop>
          <stop offset="1" style="stop-color:#F1BFB3"></stop>
        </linearGradient>
        <path fill="url(#SVGID_45_)" d="M472.352,782.601c1.681-0.349,7.064,16.377-15.139,13.241c0,0,19.51,5.227,25.568,21.604
				c6.056,16.377,6.056,5.575,6.056,5.575l-0.336-33.451L472.352,782.601z"></path>
        <linearGradient id="SVGID_46_" gradientUnits="userSpaceOnUse" x1="433.1787" y1="782.4102" x2="438.4436" y2="787.9847">
          <stop offset="0" style="stop-color:#F2D6CB"></stop>
          <stop offset="1" style="stop-color:#F3E0DA"></stop>
        </linearGradient>
        <path fill="url(#SVGID_46_)" d="M443.754,778.071c12.239-4.073,15.476,12.893-1.009,25.089
				C426.261,815.355,424.915,784.344,443.754,778.071z"></path>
        <linearGradient id="SVGID_47_" gradientUnits="userSpaceOnUse" x1="612.3882" y1="1019.0586" x2="644.7061" y2="871.3224">
          <stop offset="0" style="stop-color:#F2D6CB"></stop>
          <stop offset="1" style="stop-color:#F3E0DA"></stop>
        </linearGradient>
        <path fill="url(#SVGID_47_)" d="M726.246,928.487c-1.69-34.45-95.997,14.869-146.237-8.363
				c-50.24-23.232-72.669,33.451,5.383,79.91C663.442,1046.499,728.936,983.309,726.246,928.487z"></path>
        <linearGradient id="SVGID_48_" gradientUnits="userSpaceOnUse" x1="746.2036" y1="1292.7349" x2="746.2036" y2="1213.4897">
          <stop offset="0" style="stop-color:#F2D6CB"></stop>
          <stop offset="1" style="stop-color:#F3E0DA"></stop>
        </linearGradient>
        <path fill="url(#SVGID_48_)" d="M717.271,1272.759c0,15.653,25.911,28.338,57.865,28.338v-56.678
				C743.182,1244.419,717.271,1257.105,717.271,1272.759z"></path>
        <linearGradient id="SVGID_49_" gradientUnits="userSpaceOnUse" x1="700.0835" y1="733.3101" x2="700.0835" y2="525.848">
          <stop offset="0" style="stop-color:#F2D6CB"></stop>
          <stop offset="1" style="stop-color:#F3E0DA"></stop>
        </linearGradient>
        <path fill="url(#SVGID_49_)" d="M775.136,722.64c-17.575-1.896-34.031,3.807-81.187-1.809
				c-65.493-7.799-88.819-35.096-50.242-84.23c26.636-33.924,82.616-74.222,131.429-74.222V722.64z"></path>
      </g>
      <path id="line_1_" fill="#AA4040" d="M775.136,1336.655c-28.63-0.636-63.394-7.044-101.861-26.313
			c-83.333-41.732-121.83-116.607-146.056-177.172c-25.466-63.664-33.784-245.047-33.784-300.392c0-5.625-0.104-12.325-0.22-19.93
			c-1.01-65.369-3.114-160.97,53.423-253.34c46.371-75.766,169.506-101.651,228.499-101.466v-8.567
			c-60.424-0.503-186.231,25.357-235.32,105.556c-50.153,81.943-55.204,155.95-54.995,228.061
			c-11.168-6.621-32.243-15.09-52.39-1.182c-33.962,23.45-18.514,91.31-0.324,122.714c8.644,14.918,13.393,31.796,17.583,46.682
			c4.967,17.657,9.26,32.907,18.658,41.422c5.917,5.363,13.345,6.817,19.666,6.817c2.307,0,4.436-0.202,6.319-0.474
			c5.388,54.582,13.557,107.628,25.426,137.301c22.842,57.109,63.245,138.053,150.001,181.5
			c39.798,19.933,75.767,26.547,105.375,27.179V1336.655z M436.911,788.868c19.713-13.605,40.528-1.331,47.968,4.035
			c0.064,7.24,0.169,13.968,0.263,20.078c0.01,0.684,0.021,1.319,0.029,1.986c-5.013-9.11-12.036-15.635-20.545-18.625
			c-11.718-4.121-24.268-0.421-33.575,9.885c-4.286,4.745-7.548,10.535-10.026,16.215
			C422.341,807.936,427.161,795.6,436.911,788.868z M473.664,986.434c-7.624-6.909-11.607-21.071-16.223-37.464
			c-4.326-15.381-9.231-32.81-18.411-48.653c-8.205-14.164-14.795-33.918-17.302-53.162l0.379,0.06
			c0.033-0.225,3.456-22.671,14.841-35.275c7.186-7.957,16.33-10.751,25.085-7.679c12.367,4.346,21.228,19.434,23.124,39.38
			l0.283-0.029c0.11,8.283,0.337,18.03,0.701,28.899c-4.352-9.069-12.261-17.148-26.574-18.827c0,0,28.26,26.483,22.204,37.633
			c-6.056,11.149-12.111,25.784-9.419,32.753c0,0,8.938-5.221,15.887-4.972c1.274,22.672,3.013,47.205,5.297,71.656
			C488.047,991.595,479.529,991.748,473.664,986.434z"></path>
    </g>
    <g id="right" display="inline">
      <g id="colors_2_">
        <path fill="#F2D6CB" d="M775.136,455.055v885.767c0,0,78.225-2.331,139.522-48.768c0,0,29.551-24.55,65.798-71.895
				c0,0,53.506-61.067,71.446-221.088v-3.218c0,0,7.957,7.433,24.675-6.968c0,0,12.787-16.029,18.841-34.846
				c6.055-18.816,19.515-51.919,25.23-61.674c5.72-9.757,10.767-40.42,11.438-58.54c0.676-18.12-3.361-46.345-21.867-51.223
				c-18.503-4.878-36.333,0.697-36.333,0.697l-12.113,6.272c0,0-6.055-113.944-13.118-149.138
				c-7.064-35.194-14.805-40.769-36.337-72.827c-21.531-32.057-53.828-63.767-99.579-77.355
				c-45.757-13.59-119.772-35.194-119.772-35.194H775.136z"></path>
        <linearGradient id="SVGID_50_" gradientUnits="userSpaceOnUse" x1="647.8525" y1="799.4307" x2="385.7766" y2="538.9935" gradientTransform="matrix(-1 0 0 1 1432.1943 0)">
          <stop offset="0" style="stop-color:#F2D6CB"></stop>
          <stop offset="1" style="stop-color:#F1BFB3"></stop>
        </linearGradient>
        <path fill="url(#SVGID_50_)" d="M792.967,455.055c0,0,66.279,11.499,112.033,25.089c45.754,13.589,85.787,55.404,107.318,87.461
				c21.532,32.058,29.272,37.633,36.337,72.827c6.395,31.864,11.962,128.284,12.958,146.238c-0.591,11.679-2.728,54.234-4.765,95.48
				c-11.001-15.827-17.131-71.707-22.887-128.354c-8.975-88.274-23.326-124.049-76.258-186.307
				c-38.936-45.797-133.755-85.518-182.568-85.518v-26.917H792.967z"></path>
        <linearGradient id="SVGID_51_" gradientUnits="userSpaceOnUse" x1="611.3691" y1="970.9229" x2="355.9357" y2="1312.752" gradientTransform="matrix(-1 0 0 1 1432.1943 0)">
          <stop offset="0" style="stop-color:#F2D6CB"></stop>
          <stop offset="1" style="stop-color:#F1BFB3"></stop>
        </linearGradient>
        <path fill="url(#SVGID_51_)" d="M775.136,1314.573c24.876,1.226,57.44-1.388,83.884-18.12
				c48.443-30.664,83.434-125.443,88.818-179.339c5.382-53.89,13.456-55.752,62.798-115.218
				c49.341-59.471,39.476-155.179,39.476-155.179l10.764,41.814l-2.692,14.868l-6.28,92.454v3.218
				c-17.94,160.021-71.446,221.088-71.446,221.088c-36.247,47.345-65.798,71.895-65.798,71.895
				c-61.298,46.437-139.522,48.768-139.522,48.768V1314.573z"></path>
        <linearGradient id="SVGID_52_" gradientUnits="userSpaceOnUse" x1="613.8359" y1="945.2251" x2="340.4221" y2="1311.1162" gradientTransform="matrix(-1 0 0 1 1432.1943 0)">
          <stop offset="0" style="stop-color:#F2D6CB"></stop>
          <stop offset="1" style="stop-color:#F3E0DA"></stop>
        </linearGradient>
        <path fill="url(#SVGID_52_)" d="M775.136,1328.108c19.032-1.094,38.999-3.773,56.071-9.354
				c51.135-16.726,113.043-51.108,163.28-150.532c50.239-99.429,49.341-222.078,51.138-268.542
				c1.795-46.458,14.352-84.557,14.352-84.557l-8.074,180.729l-0.212,4.982c-18.139,158.682-71.234,219.324-71.234,219.324
				c-36.247,47.345-65.798,71.895-65.798,71.895c-61.298,46.437-139.522,48.768-139.522,48.768V1328.108z"></path>
        <linearGradient id="SVGID_53_" gradientUnits="userSpaceOnUse" x1="273.2173" y1="920.0649" x2="356.2527" y2="893.7366" gradientTransform="matrix(-1 0 0 1 1432.1943 0)">
          <stop offset="0" style="stop-color:#F2D6CB"></stop>
          <stop offset="1" style="stop-color:#F1BFB3"></stop>
        </linearGradient>
        <path fill="url(#SVGID_53_)" d="M1059.757,876.683c0,0-8.074-45.996,22.203-52.268c30.279-6.272,38.354,29.967,24.222,46.693
				c-14.128,16.726-5.381-4.181-11.436,0.697c-6.058,4.878,3.362,3.485-1.348,34.844c-4.71,31.361-37.008,77.356-39.024,47.389
				C1052.354,924.072,1059.757,876.683,1059.757,876.683z"></path>
        <linearGradient id="SVGID_54_" gradientUnits="userSpaceOnUse" x1="300.4629" y1="836.9009" x2="337.296" y2="828.115" gradientTransform="matrix(-1 0 0 1 1432.1943 0)">
          <stop offset="0" style="stop-color:#F2D6CB"></stop>
          <stop offset="1" style="stop-color:#F1BFB3"></stop>
        </linearGradient>
        <path fill="url(#SVGID_54_)" d="M1128.386,865.184c0,0-7.064-46.692-24.896-51.571c-17.832-4.878-35.662,5.923-39.024,11.499
				c-3.362,5.575,6.392-21.256,15.476-24.74c9.082-3.485,28.595-1.394,38.355,11.499
				C1128.051,824.764,1134.444,834.521,1128.386,865.184z"></path>
        <linearGradient id="SVGID_55_" gradientUnits="userSpaceOnUse" x1="345.46" y1="782.8433" x2="357.1036" y2="795.1719" gradientTransform="matrix(-1 0 0 1 1432.1943 0)">
          <stop offset="0" style="stop-color:#F2D6CB"></stop>
          <stop offset="1" style="stop-color:#F1BFB3"></stop>
        </linearGradient>
        <path fill="url(#SVGID_55_)" d="M1077.922,782.601c-1.683-0.349-7.064,16.377,15.142,13.241c0,0-19.514,5.227-25.57,21.604
				c-6.055,16.377-6.055,5.575-6.055,5.575l0.335-33.451L1077.922,782.601z"></path>
        <linearGradient id="SVGID_56_" gradientUnits="userSpaceOnUse" x1="315.0991" y1="782.4106" x2="320.3637" y2="787.9849" gradientTransform="matrix(-1 0 0 1 1432.1943 0)">
          <stop offset="0" style="stop-color:#F2D6CB"></stop>
          <stop offset="1" style="stop-color:#F3E0DA"></stop>
        </linearGradient>
        <path fill="url(#SVGID_56_)" d="M1106.52,778.071c-12.241-4.073-15.474,12.893,1.01,25.089S1125.36,784.344,1106.52,778.071z"></path>
        <linearGradient id="SVGID_57_" gradientUnits="userSpaceOnUse" x1="494.3071" y1="1019.0586" x2="526.6253" y2="871.3211" gradientTransform="matrix(-1 0 0 1 1432.1943 0)">
          <stop offset="0" style="stop-color:#F2D6CB"></stop>
          <stop offset="1" style="stop-color:#F3E0DA"></stop>
        </linearGradient>
        <path fill="url(#SVGID_57_)" d="M824.031,928.487c1.686-34.45,95.993,14.869,146.235-8.363
				c50.238-23.232,72.669,33.451-5.382,79.91C886.832,1046.499,821.339,983.309,824.031,928.487z"></path>
        <linearGradient id="SVGID_58_" gradientUnits="userSpaceOnUse" x1="628.1255" y1="1292.7344" x2="628.1255" y2="1213.4893" gradientTransform="matrix(-1 0 0 1 1432.1943 0)">
          <stop offset="0" style="stop-color:#F2D6CB"></stop>
          <stop offset="1" style="stop-color:#F3E0DA"></stop>
        </linearGradient>
        <path fill="url(#SVGID_58_)" d="M833.003,1272.759c0,15.653-25.911,28.338-57.867,28.338v-56.678
				C807.092,1244.419,833.003,1257.105,833.003,1272.759z"></path>
        <linearGradient id="SVGID_59_" gradientUnits="userSpaceOnUse" x1="582.0054" y1="733.3096" x2="582.0054" y2="525.8475" gradientTransform="matrix(-1 0 0 1 1432.1943 0)">
          <stop offset="0" style="stop-color:#F2D6CB"></stop>
          <stop offset="1" style="stop-color:#F3E0DA"></stop>
        </linearGradient>
        <path fill="url(#SVGID_59_)" d="M775.136,562.378c51.139,0,104.794,40.298,131.429,74.222
				c38.581,49.134,15.251,76.431-50.239,84.23c-47.155,5.616-63.613-0.087-81.189,1.809V562.378z"></path>
      </g>
      <path id="line_2_" fill="#AA4040" d="M775.136,1345.051c29.613-0.632,65.577-7.247,105.377-27.179
			c86.756-43.448,127.158-124.392,149.998-181.5c11.874-29.673,20.042-82.72,25.43-137.301c1.881,0.272,4.012,0.474,6.317,0.474
			c6.324,0,13.751-1.454,19.667-6.817c9.399-8.515,13.691-23.766,18.66-41.422c4.189-14.886,8.938-31.764,17.577-46.682
			c18.196-31.404,33.643-99.264-0.32-122.714c-20.147-13.908-41.224-5.439-52.394,1.182c0.21-72.111-4.842-146.118-54.99-228.061
			c-49.088-80.199-174.896-106.059-235.322-105.556v8.567c58.992-0.186,182.132,25.7,228.5,101.466
			c56.538,92.371,54.434,187.972,53.423,253.34c-0.113,7.605-0.219,14.305-0.219,19.93c0,55.345-8.319,236.729-33.786,300.392
			c-24.225,60.565-62.724,135.439-146.055,177.172c-38.467,19.269-73.229,25.677-101.863,26.313V1345.051z M1129.251,822.442
			c-2.482-5.68-5.742-11.471-10.029-16.215c-9.304-10.306-21.859-14.005-33.576-9.885c-8.507,2.99-15.533,9.516-20.543,18.625
			c0.011-0.667,0.02-1.302,0.03-1.986c0.096-6.11,0.196-12.838,0.264-20.078c7.44-5.366,28.252-17.64,47.967-4.035
			C1123.109,795.6,1127.931,807.936,1129.251,822.442z M1056.737,990.756c2.284-24.451,4.023-48.984,5.294-71.656
			c6.951-0.25,15.891,4.972,15.891,4.972c2.692-6.969-3.364-21.604-9.419-32.753c-6.058-11.15,22.203-37.633,22.203-37.633
			c-14.313,1.679-22.225,9.757-26.572,18.827c0.362-10.869,0.591-20.616,0.702-28.899l0.281,0.029
			c1.895-19.946,10.755-35.035,23.126-39.38c8.751-3.072,17.898-0.278,25.085,7.679c11.379,12.604,14.808,35.05,14.839,35.275
			l0.379-0.06c-2.508,19.244-9.098,38.998-17.306,53.162c-9.179,15.843-14.081,33.271-18.408,48.653
			c-4.614,16.393-8.603,30.555-16.225,37.464C1070.743,991.748,1062.229,991.595,1056.737,990.756z"></path>
    </g>
    <g id="under_nose_2_" display="inline">
      <linearGradient id="SVGID_60_" gradientUnits="userSpaceOnUse" x1="773.9102" y1="1119.8926" x2="773.9102" y2="1064.207">
        <stop offset="0" style="stop-color:#F2D6CB"></stop>
        <stop offset="1" style="stop-color:#F1BFB3"></stop>
      </linearGradient>
      <path fill="url(#SVGID_60_)" d="M825.34,1073.606l-4.986-2.961l-13.484-6.876c0,0-5.098,4.203-14.363,12.076
			c-5.509,4.677-13.228,7.307-18.596,8.685c-5.367-1.378-13.086-4.008-18.596-8.685c-9.264-7.873-14.363-12.076-14.363-12.076
			l-13.482,6.876l-4.987,2.961l-17.184-9.021c0,0,1.048,20.608,17.184,18.446c16.135-2.167,23.262-0.773,33.405,8.521
			c10.143,9.293,9.213,23.232,7.818,32.52c0.727,3.387,5.485,5.619,10.205,5.423c4.721,0.196,9.479-2.037,10.207-5.423
			c-1.395-9.288-2.326-23.227,7.817-32.52c10.144-9.294,17.271-10.688,33.405-8.521c16.136,2.162,17.183-18.446,17.183-18.446
			L825.34,1073.606z"></path>
      <linearGradient id="SVGID_61_" gradientUnits="userSpaceOnUse" x1="776.6621" y1="1100.377" x2="776.6621" y2="1138.047">
        <stop offset="0" style="stop-color:#F2D6CB"></stop>
        <stop offset="1" style="stop-color:#F3E0DA"></stop>
      </linearGradient>
      <path fill="url(#SVGID_61_)" d="M755.887,1103.862c0,0-0.129,0.37-0.375,1.019c-1.697,4.464-8.99,22.279-18.521,25.932
			c-10.916,4.181,5.345-0.986,12.314-1.307c6.969-0.322,16.475,4.323,23.221,7.579c6.746,3.25,11.855-0.468,19.986-4.182
			c8.132-3.719,18.122-2.09,25.555,1.16c7.432,3.25-8.598-4.557-13.707-12.963c-5.11-8.407-2.087-16.541-5.807-17.238
			c-3.719-0.697-2.091-1.394-3.949,8.362c-1.859,9.757-4.186,15.283-12.313,17.282c-8.13,2.003-17.423,1.535-21.604-3.343
			S759.449,1114.779,755.887,1103.862z"></path>
    </g>
    <g id="nose_1_" display="inline">
      <path fill="#F2D6CB" d="M846.019,1051.501c-0.397-10.508-19.823-59.841-28.295-101.307c-8.473-41.466,0-56.466,0-56.466
			c-27.07-51.574-82.739-15.745-86.896,0c0,0,8.472,15,0,56.466c-8.472,41.465-27.897,90.799-28.295,101.307
			c-0.397,10.509,4.922,28.666,16.032,22.045c11.11-6.621,15.64-10.802,19.124-10.802c3.484,0,13.852,7.105,19.166,15.229
			c4.287,6.556,11.632,8.042,17.422,7.824c5.79,0.217,13.135-1.269,17.422-7.824c5.314-8.123,15.682-15.229,19.166-15.229
			s8.014,4.182,19.123,10.802C841.097,1080.167,846.416,1062.01,846.019,1051.501z"></path>
      <linearGradient id="SVGID_62_" gradientUnits="userSpaceOnUse" x1="774.2754" y1="988.8735" x2="774.2754" y2="1124.5922">
        <stop offset="0" style="stop-color:#F2D6CB"></stop>
        <stop offset="1" style="stop-color:#F1BFB3"></stop>
      </linearGradient>
      <path fill="url(#SVGID_62_)" d="M774.379,1083.015c-0.522,0.011-0.842,0.016-1.165,0.016c-4.435,0-10.468-1.144-14.028-6.583
			c-5.243-8.015-16.293-16.492-21.498-16.492c-3.104,0-4.063,5.87-9.29,9.294c-2.462,1.612-7.446-0.371-11.26,1.9
			c-1.141,0.681-2.192,1.024-3.122,1.024c-1.157,0-2.238-0.534-3.303-1.645c-3.632-3.768-5.627-12.756-5.396-18.919
			c0.161-4.263,4.227-17.042,8.938-31.846c6.479-20.357,14.542-45.702,19.304-69.01c7.383-36.131,2.112-52.829,0.261-57.209
			c3.335-8.496,23.423-23.866,44.243-23.866c15.473,0,27.765,8.124,36.551,24.15c-1.943,4.788-6.852,21.535,0.379,56.925
			c4.762,23.308,12.825,48.652,19.304,69.01c4.711,14.804,8.777,27.583,8.938,31.846c0.232,6.163-1.764,15.152-5.396,18.919
			c-1.063,1.111-2.145,1.645-3.299,1.645c0,0,0,0-0.003,0c-0.931,0-2.785,1.007-3.926,0.327c-3.814-2.271-6.136,0.452-8.598-1.161
			c-5.227-3.424-8.047-11.385-11.149-11.385c-5.205,0-12.41,8.717-17.654,16.726c-3.561,5.445-13.438,6.349-17.872,6.349
			C775.014,1083.031,774.695,1083.026,774.379,1083.015z"></path>
      <linearGradient id="SVGID_63_" gradientUnits="userSpaceOnUse" x1="705.2979" y1="1069.1626" x2="805.3311" y2="1069.1626">
        <stop offset="0" style="stop-color:#F2D6CB"></stop>
        <stop offset="1" style="stop-color:#F3E0DA"></stop>
      </linearGradient>
      <path fill="url(#SVGID_63_)" d="M705.298,1059.609c0,0,4.862,11.325,16.362,2.788c11.499-8.538,19.338-15.681,28.574-4.879
			c9.233,10.802,9.908,19.802,22.292,20.455c19.742,1.045,32.806-20.482,32.806-20.482s-0.217,5.428-3.354,9.784
			c-3.137,4.355-14.983,16.377-20.21,18.119c-5.227,1.743-14.286,0.844-18.294-2.363c-4.007-3.212-12.37-12.272-17.423-15.06
			c-5.053-2.787-6.447-5.574-9.757-4.704c-3.311,0.871-9.582,6.446-11.325,8.363c-1.742,1.917-4.704,3.659-7.84,2.613
			c-3.135-1.045-6.446-3.19-8.362-5.08C706.851,1067.275,705.298,1059.609,705.298,1059.609z"></path>
      <linearGradient id="SVGID_64_" gradientUnits="userSpaceOnUse" x1="824.4619" y1="939.0801" x2="687.4006" y2="1043.6165">
        <stop offset="0" style="stop-color:#F2D6CB"></stop>
        <stop offset="1" style="stop-color:#F3E0DA"></stop>
      </linearGradient>
      <path fill="url(#SVGID_64_)" d="M766.959,899.669c-4.97,26.597-4.184,67.371-9.758,107.792s7.434,64.115,22.767,55.284
			c15.332-8.825,6.969-81.304,6.503-113.83C786.006,916.395,772.6,869.481,766.959,899.669z"></path>
      <linearGradient id="SVGID_65_" gradientUnits="userSpaceOnUse" x1="731.9131" y1="1047.334" x2="699.5092" y2="1026.4282">
        <stop offset="0" style="stop-color:#F0CCC0"></stop>
        <stop offset="1" style="stop-color:#F3E0DA"></stop>
      </linearGradient>
      <path fill="url(#SVGID_65_)" d="M718.872,1029.99c-10.938,12.931-6.866,25.437-2.91,28.573
			c3.954,3.136,16.817-10.911,17.167-23.803C733.477,1021.867,726.538,1020.931,718.872,1029.99z"></path>
      <linearGradient id="SVGID_66_" gradientUnits="userSpaceOnUse" x1="847.9326" y1="1045.792" x2="763.2603" y2="1029.7634">
        <stop offset="0" style="stop-color:#F0CCC0"></stop>
        <stop offset="1" style="stop-color:#F3E0DA"></stop>
      </linearGradient>
      <path fill="url(#SVGID_66_)" d="M828.955,1029.99c10.938,12.931,6.867,25.437,2.911,28.573
			c-3.956,3.136-16.819-10.911-17.167-23.803C814.351,1021.867,821.289,1020.931,828.955,1029.99z"></path>
      <linearGradient id="SVGID_67_" gradientUnits="userSpaceOnUse" x1="774.2754" y1="1121.9824" x2="774.2754" y2="1050.7311">
        <stop offset="0" style="stop-color:#B66262"></stop>
        <stop offset="1" style="stop-color:#E8A2A4"></stop>
      </linearGradient>
      <path fill="url(#SVGID_67_)" d="M837.346,1021.627c10.802,32.058,4.182,43.208-0.349,46.344
			c-4.529,3.137-13.938,1.394-17.074-4.529c-3.137-5.924-6.272-8.363-12.894-6.621c-6.619,1.743-4.205,8.728-17.422,20.211
			c-4.543,3.947-19.364,9.337-30.664-1.046c-12.893-11.848-10.802-17.422-17.422-19.165c-6.621-1.742-9.757,0.697-12.894,6.621
			c-3.136,5.923-12.544,7.666-17.074,4.529c-4.53-3.135-11.15-14.286-0.348-46.344c0.351-1.046-13.939,33.451-7.667,45.299
			c6.271,11.847,13.589,11.847,20.908,10.105c7.317-1.743,8.013-7.667,9.059-8.363c1.046-0.697,10.802-1.394,20.908,10.802
			c10.774,13.007,29.474,14.113,39.723,0c8.858-12.195,19.862-11.499,20.908-10.802c1.046,0.697,1.741,6.621,9.06,8.363
			c7.318,1.742,14.635,1.742,20.907-10.105C851.284,1055.079,836.994,1020.582,837.346,1021.627z"></path>
    </g>
    <g id="eye_4_" display="inline">
      <g id="skin_around_eye_4_">
        <linearGradient id="SVGID_68_" gradientUnits="userSpaceOnUse" x1="660.6411" y1="946.814" x2="618.8265" y2="806.0385">
          <stop offset="0" style="stop-color:#F2D6CB"></stop>
          <stop offset="1" style="stop-color:#F1BFB3"></stop>
        </linearGradient>
        <path fill="url(#SVGID_68_)" d="M730.371,886.428c-4.878-4.182,1.046,10.105,4.53,14.635c3.484,4.53-25.437,5.227-38.33,13.59
				c-12.892,8.363-58.888,16.029-94.43,1.045s-57.147-49.48-59.934-52.965c-23.726-29.658,21.146-45.511,54.708-51.106
				c20.907-3.484,29.502-10.918,25.321-14.17s-17.423-10.919-44.138-15.565c-26.715-4.646-40.652,8.363-40.652,8.363l5.342-7.667
				c0,0,14.868-4.181,16.029-5.109c1.161-0.928,17.189-0.93,17.887-1.163s33.219,2.788,33.219,2.788l41.815,23.23
				c0,0,0.82,2.579,1.743,5.691c23.091,1.908,42.982,10.646,57.377,25.786c20.21,21.256,25.786,45.647,29.27,56.798
				C743.611,901.759,735.249,890.609,730.371,886.428z"></path>
        <linearGradient id="SVGID_69_" gradientUnits="userSpaceOnUse" x1="639.9097" y1="859.1289" x2="639.9097" y2="899.2048">
          <stop offset="0" style="stop-color:#B66262"></stop>
          <stop offset="1" style="stop-color:#E8A2A4"></stop>
        </linearGradient>
        <path fill="url(#SVGID_69_)" d="M707.955,886.195c-2.809-5.925-9.293-36.181-68.764-43.672
				c-25.459-3.207-59.934,15.564-65.509,16.726c-12.08,15.099,20.443,38.095,20.443,38.095c44.602,21.375,77.339,8.875,86.417,3.719
				C700.986,889.448,712.137,895.025,707.955,886.195z"></path>
        <linearGradient id="SVGID_70_" gradientUnits="userSpaceOnUse" x1="556.7114" y1="836.0156" x2="562.2866" y2="794.6672">
          <stop offset="0" style="stop-color:#F2D6CB"></stop>
          <stop offset="1" style="stop-color:#F3E0DA"></stop>
        </linearGradient>
        <path fill="url(#SVGID_70_)" d="M532.798,802.567c19.813-22.981,45.532-11.616,58.076-7.435
				c12.544,4.182-27.876,4.647-40.421,17.656C537.909,825.797,521.182,816.042,532.798,802.567z"></path>
        <linearGradient id="SVGID_71_" gradientUnits="userSpaceOnUse" x1="713.1191" y1="898.2695" x2="708.9373" y2="884.1906">
          <stop offset="0" style="stop-color:#F2D6CB"></stop>
          <stop offset="1" style="stop-color:#F3E0DA"></stop>
        </linearGradient>
        <path fill="url(#SVGID_71_)" d="M712.368,881.316c-4.255-5.103-4.878,0.93-2.091,5.112c2.788,4.182-0.469,6.04-3.021,7.434
				c-2.554,1.392,4.645,4.647,7.666,1.164C717.943,891.539,713.53,882.71,712.368,881.316z"></path>
      </g>
      <linearGradient id="eyewhite_1_" gradientUnits="userSpaceOnUse" x1="569.0371" y1="876.1099" x2="690.9526" y2="876.1099">
        <stop offset="0" style="stop-color:#D1C9CD"></stop>
        <stop offset="1" style="stop-color:#F2F1F8"></stop>
      </linearGradient>
      <path id="eyewhite_4_" fill="url(#eyewhite_1_)" d="M569.037,859.945c0,0,2.091,13.938,9.06,21.604s32.057,23.695,45.647,24.74
			c13.59,1.046,31.013-1.045,37.633-3.833c6.621-2.787,20.21-9.408,25.437-11.15s6.272-5.575-1.394-13.59
			c-7.666-8.015-14.635-19.514-25.088-24.043S611.896,835.205,569.037,859.945z"></path>
      <g id="pupil_4_">
        <linearGradient id="SVGID_72_" gradientUnits="userSpaceOnUse" x1="633.8926" y1="899.6689" x2="633.8926" y2="848.563">
          <stop offset="0" style="stop-color:#160F13"></stop>
          <stop offset="0.6667" style="stop-color:#546372"></stop>
          <stop offset="1" style="stop-color:#160F13"></stop>
        </linearGradient>
        <circle fill="url(#SVGID_72_)" cx="633.893" cy="874.116" r="25.553"></circle>
        <linearGradient id="SVGID_73_" gradientUnits="userSpaceOnUse" x1="633.8931" y1="898.7437" x2="633.8931" y2="849.4912">
          <stop offset="0" style="stop-color:#42688B"></stop>
          <stop offset="1" style="stop-color:#160E12"></stop>
        </linearGradient>
        <path fill="url(#SVGID_73_)" d="M658.517,874.116c0,13.6-11.025,24.628-24.624,24.628c-13.601,0-24.625-11.028-24.625-24.628
				c0-13.599,11.024-24.625,24.625-24.625C647.492,849.491,658.517,860.517,658.517,874.116z"></path>
        <linearGradient id="SVGID_74_" gradientUnits="userSpaceOnUse" x1="633.8921" y1="887.5898" x2="633.8921" y2="860.6421">
          <stop offset="0" style="stop-color:#010101"></stop>
          <stop offset="1" style="stop-color:#160F13"></stop>
        </linearGradient>
        <circle fill="url(#SVGID_74_)" cx="633.892" cy="874.116" r="13.474"></circle>
        <circle fill="#FFFFFF" cx="622.931" cy="867.149" r="5.575"></circle>
        <circle fill="#FFFFFF" cx="643.373" cy="882.943" r="3.253"></circle>
      </g>
      <g id="eyelash_4_">
        <path fill="#030504" d="M707.721,882.595c0,0-16.029-34.579-51.92-46.385c-35.89-11.806-54.009,2.48-72.478,3.177
				c4.53,3.137,11.5,3.137,11.5,3.137s-21.604,3.833-33.452-1.394c0,0,4.529,8.736,9.06,9.769c0,0-12.893,4.891-23.694,0
				c0,0,3.833,7.305,9.408,9.048c0,0-7.318,4.878-18.12,0.697c0,0,10.282,9.366,23.812,10.687
				c14.287,1.394,19.121-11.283,52.151-17.656c36.124-6.969,70.271,10.221,82.352,20.443l-6.738-12.428
				C689.601,861.688,701.101,872.838,707.721,882.595z"></path>
        <path fill="#030504" d="M564.159,864.059l4.878-4.114c0,0,9.06,28.225,38.679,39.026c29.618,10.802,62.024,0.349,62.024,0.349
				s-13.242,9.06-28.574,10.802c-15.333,1.742-37.982-7.667-42.86-9.757c-4.878-2.091-10.801-1.045-10.801-1.045l1.742-3.485
				c0,0-5.576-3.485-9.409,0.348c0,0-0.348-6.969,2.788-6.969c0,0-4.878-3.833-11.847-0.349c0,0,0.349-5.227,4.53-7.317
				c0,0-11.499-2.788-16.725,1.742c0,0,1.394-7.55,9.059-11.151C570.338,870.875,569.386,865.453,564.159,864.059z"></path>
      </g>
      <linearGradient id="eyebrow_1_" gradientUnits="userSpaceOnUse" x1="611.6826" y1="778.2705" x2="630.1506" y2="838.9014">
        <stop offset="0" style="stop-color:#995023"></stop>
        <stop offset="1" style="stop-color:#3F1F13"></stop>
      </linearGradient>
      <path id="eyebrow_4_" fill="url(#eyebrow_1_)" d="M533.495,793.391c1.393-0.348,14.983-29.27,44.602-28.224
			c29.619,1.045,51.223,7.317,64.813,14.286c13.589,6.969,17.422,9.409,17.422,9.409v-2.439c0,0,6.272,4.182,8.363,5.575
			c2.09,1.394,17.074,4.879,17.074,4.879l3.485,2.787c0,0,11.499,5.227,14.983,11.151c3.484,5.923-7.667,11.15-13.59,13.241
			c-5.924,2.091-33.451-1.394-39.375-9.06c-5.923-7.666-22.301-19.165-37.284-26.482s-32.754-8.362-42.163-8.711
			C552.268,779.077,541.087,788.623,533.495,793.391z"></path>
    </g>
    <g id="eye_2_" display="inline">
      <g id="skin_around_eye_2_">
        <linearGradient id="SVGID_75_" gradientUnits="userSpaceOnUse" x1="581.96" y1="946.8154" x2="540.1451" y2="806.0391" gradientTransform="matrix(-1 0 0 1 1465.2656 0)">
          <stop offset="0" style="stop-color:#F2D6CB"></stop>
          <stop offset="1" style="stop-color:#F1BFB3"></stop>
        </linearGradient>
        <path fill="url(#SVGID_75_)" d="M803.82,890.609c3.484-11.151,9.061-35.542,29.271-56.798
				c14.396-15.14,34.287-23.877,57.377-25.786c0.921-3.112,1.743-5.691,1.743-5.691l41.813-23.23c0,0,32.523-3.021,33.221-2.788
				c0.696,0.233,16.725,0.234,17.886,1.163s16.028,5.109,16.028,5.109l5.344,7.667c0,0-13.938-13.009-40.651-8.363
				s-39.955,12.313-44.138,15.565c-4.181,3.252,4.413,10.687,25.321,14.17c33.56,5.595,78.431,21.448,54.707,51.106
				c-2.788,3.484-24.392,37.981-59.935,52.965c-35.542,14.983-81.538,7.317-94.431-1.045c-12.894-8.363-41.813-9.06-38.33-13.59
				c3.484-4.53,9.409-18.817,4.531-14.635C808.699,890.609,800.336,901.759,803.82,890.609z"></path>
        <linearGradient id="SVGID_76_" gradientUnits="userSpaceOnUse" x1="561.2271" y1="859.1294" x2="561.2271" y2="899.2053" gradientTransform="matrix(-1 0 0 1 1465.2656 0)">
          <stop offset="0" style="stop-color:#B66262"></stop>
          <stop offset="1" style="stop-color:#E8A2A4"></stop>
        </linearGradient>
        <path fill="url(#SVGID_76_)" d="M835.993,886.195c2.81-5.925,9.293-36.181,68.762-43.672
				c25.459-3.207,59.934,15.564,65.509,16.726c12.082,15.099-20.441,38.095-20.441,38.095c-44.602,21.375-77.337,8.875-86.417,3.719
				C842.962,889.448,831.811,895.025,835.993,886.195z"></path>
        <linearGradient id="SVGID_77_" gradientUnits="userSpaceOnUse" x1="478.0273" y1="836.0151" x2="483.6024" y2="794.6674" gradientTransform="matrix(-1 0 0 1 1465.2656 0)">
          <stop offset="0" style="stop-color:#F2D6CB"></stop>
          <stop offset="1" style="stop-color:#F3E0DA"></stop>
        </linearGradient>
        <path fill="url(#SVGID_77_)" d="M1011.15,802.567c-19.813-22.981-45.533-11.616-58.075-7.435
				c-12.544,4.182,27.874,4.647,40.419,17.656C1006.037,825.797,1022.766,816.042,1011.15,802.567z"></path>
        <linearGradient id="SVGID_78_" gradientUnits="userSpaceOnUse" x1="634.4365" y1="898.269" x2="630.2546" y2="884.1901" gradientTransform="matrix(-1 0 0 1 1465.2656 0)">
          <stop offset="0" style="stop-color:#F2D6CB"></stop>
          <stop offset="1" style="stop-color:#F3E0DA"></stop>
        </linearGradient>
        <path fill="url(#SVGID_78_)" d="M831.58,881.316c4.255-5.103,4.878,0.93,2.09,5.112c-2.787,4.182,0.469,6.04,3.022,7.434
				c2.554,1.392-4.645,4.647-7.666,1.164C826.004,891.539,830.417,882.71,831.58,881.316z"></path>
      </g>
      <linearGradient id="eyewhite_3_" gradientUnits="userSpaceOnUse" x1="490.3545" y1="876.1099" x2="612.271" y2="876.1099" gradientTransform="matrix(-1 0 0 1 1465.2656 0)">
        <stop offset="0" style="stop-color:#D1C9CD"></stop>
        <stop offset="1" style="stop-color:#F2F1F8"></stop>
      </linearGradient>
      <path id="eyewhite_2_" fill="url(#eyewhite_3_)" d="M974.911,859.945c0,0-2.091,13.938-9.06,21.604
			c-6.97,7.666-32.059,23.695-45.647,24.74c-13.59,1.046-31.013-1.045-37.633-3.833c-6.621-2.787-20.211-9.408-25.438-11.15
			c-5.227-1.742-6.271-5.575,1.396-13.59c7.666-8.015,14.634-19.514,25.088-24.043S932.052,835.205,974.911,859.945z"></path>
      <g id="pupil_2_">
        <linearGradient id="SVGID_79_" gradientUnits="userSpaceOnUse" x1="712.6548" y1="899.6689" x2="712.6548" y2="848.563" gradientTransform="matrix(1 0 0 1 197.4004 0)">
          <stop offset="0" style="stop-color:#160F13"></stop>
          <stop offset="0.6667" style="stop-color:#546372"></stop>
          <stop offset="1" style="stop-color:#160F13"></stop>
        </linearGradient>
        <path fill="url(#SVGID_79_)" d="M935.608,874.116c0,14.113-11.441,25.553-25.551,25.553c-14.114,0-25.557-11.44-25.557-25.553
				c0-14.112,11.442-25.553,25.557-25.553C924.167,848.563,935.608,860.004,935.608,874.116z"></path>
        <linearGradient id="SVGID_80_" gradientUnits="userSpaceOnUse" x1="712.6553" y1="898.7437" x2="712.6553" y2="849.4912" gradientTransform="matrix(1 0 0 1 197.4004 0)">
          <stop offset="0" style="stop-color:#42688B"></stop>
          <stop offset="1" style="stop-color:#160E12"></stop>
        </linearGradient>
        <path fill="url(#SVGID_80_)" d="M934.679,874.116c0,13.6-11.026,24.628-24.621,24.628c-13.6,0-24.626-11.028-24.626-24.628
				c0-13.599,11.026-24.625,24.626-24.625C923.652,849.491,934.679,860.517,934.679,874.116z"></path>
        <linearGradient id="SVGID_81_" gradientUnits="userSpaceOnUse" x1="712.6558" y1="887.5898" x2="712.6558" y2="860.6421" gradientTransform="matrix(1 0 0 1 197.4004 0)">
          <stop offset="0" style="stop-color:#010101"></stop>
          <stop offset="1" style="stop-color:#160F13"></stop>
        </linearGradient>
        <path fill="url(#SVGID_81_)" d="M923.528,874.116c0,7.441-6.033,13.474-13.471,13.474c-7.443,0-13.475-6.033-13.475-13.474
				c0-7.441,6.031-13.474,13.475-13.474C917.495,860.642,923.528,866.675,923.528,874.116z"></path>
        <circle fill="#FFFFFF" cx="899.092" cy="867.149" r="5.575"></circle>
        <circle fill="#FFFFFF" cx="919.535" cy="882.943" r="3.253"></circle>
      </g>
      <g id="eyelash_2_">
        <path fill="#030504" d="M836.228,882.595c0,0,16.027-34.579,51.918-46.385c35.892-11.806,54.011,2.48,72.479,3.177
				c-4.53,3.137-11.5,3.137-11.5,3.137s21.604,3.833,33.452-1.394c0,0-4.53,8.736-9.061,9.769c0,0,12.894,4.891,23.694,0
				c0,0-3.831,7.305-9.407,9.048c0,0,7.317,4.878,18.12,0.697c0,0-10.283,9.366-23.813,10.687
				c-14.286,1.394-19.121-11.283-52.151-17.656c-36.121-6.969-70.27,10.221-82.353,20.443l6.739-12.428
				C854.347,861.688,842.847,872.838,836.228,882.595z"></path>
        <path fill="#030504" d="M979.789,864.059l-4.878-4.114c0,0-9.06,28.225-38.679,39.026c-29.618,10.802-62.024,0.349-62.024,0.349
				s13.24,9.06,28.573,10.802c15.332,1.742,37.981-7.667,42.86-9.757c4.878-2.091,10.801-1.045,10.801-1.045l-1.742-3.485
				c0,0,5.575-3.485,9.408,0.348c0,0,0.35-6.969-2.787-6.969c0,0,4.879-3.833,11.848-0.349c0,0-0.349-5.227-4.53-7.317
				c0,0,11.499-2.788,16.726,1.742c0,0-1.395-7.55-9.06-11.151C973.609,870.875,974.563,865.453,979.789,864.059z"></path>
      </g>
      <linearGradient id="eyebrow_3_" gradientUnits="userSpaceOnUse" x1="533" y1="778.2705" x2="551.4682" y2="838.902" gradientTransform="matrix(-1 0 0 1 1465.2656 0)">
        <stop offset="0" style="stop-color:#995023"></stop>
        <stop offset="1" style="stop-color:#3F1F13"></stop>
      </linearGradient>
      <path id="eyebrow_2_" fill="url(#eyebrow_3_)" d="M1010.453,793.391c-1.395-0.348-14.983-29.27-44.602-28.224
			c-29.619,1.045-51.223,7.317-64.813,14.286c-13.59,6.969-17.422,9.409-17.422,9.409v-2.439c0,0-6.272,4.182-8.363,5.575
			c-2.091,1.394-17.074,4.879-17.074,4.879l-3.484,2.787c0,0-11.499,5.227-14.983,11.151c-3.483,5.923,7.666,11.15,13.59,13.241
			c5.924,2.091,33.452-1.394,39.374-9.06c5.925-7.666,22.303-19.165,37.285-26.482c14.984-7.317,32.755-8.362,42.163-8.711
			C991.681,779.077,1002.86,788.623,1010.453,793.391z"></path>
    </g>
    <g id="mouth_9_" display="inline">
      <path id="interior_5_" fill="#7A121C" d="M669.19,1158.174c0,0,12.261-10.383,33.322-16.886
			c21.059-6.503,62.406-13.881,73.653-12.974c14.974,1.206,39.274,0.528,53.982,7.573c15.496,7.421,54.052,22.222,54.052,22.222
			s-66.713,50.186-111.29,46.167c-33.735-3.041-63.38-24.354-72.734-29.619C676.784,1161.491,669.19,1158.174,669.19,1158.174z"></path>
      <linearGradient id="tongue_1_" gradientUnits="userSpaceOnUse" x1="774.3213" y1="1191.9585" x2="774.3213" y2="1162.108">
        <stop offset="0" style="stop-color:#8A181E"></stop>
        <stop offset="1" style="stop-color:#F59395"></stop>
      </linearGradient>
      <path id="tongue_4_" fill="url(#tongue_1_)" d="M713.574,1191.43c0,0,16.594-29.246,61.197-15.653c0,0,32.203-11.872,56.838,6.101
			C852.929,1197.427,771.053,1214.21,713.574,1191.43z"></path>
      <g id="teeth_8_">
        <path fill="#BCC6E3" d="M830.921,1145.658c0,7.679-25.127,13.905-56.123,13.905c-30.994,0-56.122-6.226-56.122-13.905
				c0-7.677,25.128-13.903,56.122-13.903C805.794,1131.754,830.921,1137.981,830.921,1145.658z"></path>
        <ellipse fill="#E9ECF7" cx="774.799" cy="1145.519" rx="51.519" ry="12.765"></ellipse>
      </g>
      <g id="teeth_7_">
        <path fill="#BCC6E3" d="M830.921,1196.681c0,6.155-25.127,11.146-56.123,11.146c-30.994,0-56.122-4.99-56.122-11.146
				c0-6.152,25.128-11.142,56.122-11.142C805.794,1185.539,830.921,1190.529,830.921,1196.681z"></path>
        <ellipse fill="#E9ECF7" cx="774.799" cy="1196.57" rx="51.519" ry="10.231"></ellipse>
      </g>
      <g id="bottom_6_">
        <g>
          <g>
            <linearGradient id="SVGID_82_" gradientUnits="userSpaceOnUse" x1="777.3301" y1="1148.2021" x2="777.3301" y2="1212.5284">
              <stop offset="0" style="stop-color:#9C1C2D"></stop>
              <stop offset="1" style="stop-color:#E88B8D"></stop>
            </linearGradient>
            <path fill="url(#SVGID_82_)" d="M883.61,1158.697c0,0-5.809,5.059-10.613,14.077c-4.809,9.021-23.614,30.966-41.196,43.211
						c-11.633,8.105-32.771,13.666-55.402,14.104c-22.608,0.934-44.252-3.786-58.362-15.291
						c-21.328-17.39-33.565-40.902-38.416-46.452c-4.85-5.551-8.571-9.825-8.571-9.825c4.563-0.005,8.798,3.212,10.652,3.727
						c9.15,2.537,20.924,10.135,30.667,14.812c42.065,20.191,84.123,18.92,127.433,2.662c11.646-4.372,35.205-17.632,35.205-17.632
						S879.04,1158.703,883.61,1158.697z"></path>
            <linearGradient id="SVGID_83_" gradientUnits="userSpaceOnUse" x1="776.4521" y1="1159.3325" x2="776.4521" y2="1248.1001">
              <stop offset="0" style="stop-color:#9C1C2D"></stop>
              <stop offset="1" style="stop-color:#E88B8D"></stop>
            </linearGradient>
            <path fill="url(#SVGID_83_)" d="M881.854,1159.103c0,0-5.531,3.209-11.234,9.108s-18.558,14.483-38.997,25.588
						c-13.519,7.344-40.33,7.891-58.714,7.72c-18.398,0.075-45.259-5.968-58.123-14.769c-20.546-14.063-27.218-17.208-32.984-21.275
						c-5.762-4.064-10.753-6.955-10.753-6.955c19.478,4.484,38.735,16.037,41.689,17.335c1.706,0.748,27.737,11.613,39.617,13.783
						c16.084,2.934,24.237,2.352,40.826,1.105c34.933-2.63,56.166-16.416,80.926-29.815
						C874.107,1160.929,877.75,1159.982,881.854,1159.103z"></path>
            <linearGradient id="SVGID_84_" gradientUnits="userSpaceOnUse" x1="776.582" y1="1222.0903" x2="776.582" y2="1184.2494">
              <stop offset="0" style="stop-color:#EF8283"></stop>
              <stop offset="1" style="stop-color:#DB6F79"></stop>
            </linearGradient>
            <path fill="url(#SVGID_84_)" d="M703.538,1184.586c5.27,2.208,2.863-1.05,5.38,2.088c2.516,3.142,1.848,2.229,3.989,3.149
						c2.141,0.92,5.771,2.189,7.124,5.312c1.352,3.119,3.551,6.187,6.215,4.325c2.664-1.856,9.008-0.305,12.126,3.032
						c3.116,3.335,4.876,5.273,8.185,3.409c3.308-1.86,6.84-4.095,11.275-1.174c4.438,2.921,6.773,3.757,11.347,1.841
						c4.571-1.912,9.839-0.506,13.397,1.296c3.555,1.801,6.972,1.987,11.607-0.66c4.637-2.64,1.742-3.436,9.863-2.17
						c8.117,1.267,15.293-0.106,18.425-2.094c3.133-1.993-0.303-1.843,7.837-3.396c8.139-1.558,11.845-4.628,13.933-7.231
						c2.085-2.6,5.537-3.853,6.89-3.509c1.354,0.343-4.992,13.467-11.229,15.054c-6.233,1.584-8.484,3.602-8.904,5.137
						c-0.42,1.533-0.716,2.461-6.701,3.343c-5.987,0.883-7.237-2.381-10.765,1.817c-3.529,4.197-9.248,5.499-14.761,5.111
						c-5.518-0.389-11.042-0.708-13.717,0.714c-2.677,1.418-6.497,1.266-11.339,0.562c-4.844-0.703-3.643-1.648-9.21-0.479
						c-5.564,1.171-10.876,0.999-14.721-0.608c-3.847-1.603-3.642-2.51-11.018-3.408c-7.372-0.901-10.403-2.294-12.226-3.879
						c-1.82-1.584,5.258,0.186-2.623-2.635c-7.881-2.824-12.149-8.015-12.336-9.863c-0.189-1.845-2.038-3.178-4.42-6.012
						c-2.381-2.83-4.627-4.456-3.448-4.848s1.414-0.436-0.547-2.497C701.205,1184.257,701.523,1183.742,703.538,1184.586z"></path>
            <linearGradient id="SVGID_85_" gradientUnits="userSpaceOnUse" x1="799.9512" y1="1280.9023" x2="785.3928" y2="1199.5155">
              <stop offset="0" style="stop-color:#9C1C2D"></stop>
              <stop offset="1" style="stop-color:#E88B8D"></stop>
            </linearGradient>
            <path fill="url(#SVGID_85_)" d="M831.801,1215.985c-11.633,8.105-32.771,13.666-55.402,14.104
						c-22.608,0.934-44.251-3.783-58.362-15.291c-6.823-5.561-12.395-12.163-16.938-18.514c5.484,5.573,17.604,19.679,45.347,24.381
						c33.74,5.72,77.142,1.505,101.122-20.034c7.029-6.312,14.398-13.738,18.577-17.691
						C857.501,1194.337,844.543,1207.11,831.801,1215.985z"></path>
            <path opacity="0.18" fill="#FFFCFD" d="M773.984,1206.406c-39.023-1.364-72.737-8.472-40.309,5.85
						c27.537,12.163,60.195,8.289,87.944-0.395C844.173,1204.799,813.09,1207.775,773.984,1206.406z"></path>
          </g>
        </g>
      </g>
      <g id="top_8_">
        <linearGradient id="SVGID_86_" gradientUnits="userSpaceOnUse" x1="776.1641" y1="1154.5908" x2="776.1641" y2="1106.9758">
          <stop offset="0" style="stop-color:#9C1C2D"></stop>
          <stop offset="1" style="stop-color:#E88B8D"></stop>
        </linearGradient>
        <path fill="url(#SVGID_86_)" d="M886.543,1160.35c-2.429-2.167-4.617-2.704-7.44-3.4c-3.972-0.978-8.431-0.708-13.657,0.212
				c-8.938,1.571-23.924,1.805-33.183-0.289c-9.264-2.094-35.041-8.42-47.278-7.247c-3.326,0.319-6.274,0.784-8.819,1.285
				c-2.546-0.501-5.497-0.966-8.819-1.285c-12.236-1.171-38.025,5.153-47.285,7.247c-9.26,2.093-24.232,1.859-33.172,0.289
				c-5.229-0.92-9.688-1.19-13.661-0.212c-2.824,0.694-5.011,1.233-7.441,3.4c0,0,6.596-8.769,12.411-11.091
				c8.588-3.43,16.523-7.442,39.844-19.763c23.322-12.324,38.522-16.048,48.766-10.421c3.272,1.796,6.42,2.637,9.357,2.915
				c2.937-0.278,6.085-1.119,9.356-2.915c10.246-5.627,25.442-1.898,48.761,10.421c23.32,12.318,31.264,16.333,39.853,19.763
				C879.944,1151.579,886.543,1160.35,886.543,1160.35z"></path>
        <linearGradient id="SVGID_87_" gradientUnits="userSpaceOnUse" x1="736.1973" y1="1160.0684" x2="726.1685" y2="1111.5961">
          <stop offset="0" style="stop-color:#9C1C2D"></stop>
          <stop offset="1" style="stop-color:#E88B8D"></stop>
        </linearGradient>
        <path fill="url(#SVGID_87_)" d="M690.214,1149.134c4.537-2.18,13.425-7.924,15.733-11.189c2.307-3.261,2.846-1.254,4.522-0.593
				c1.675,0.661,4.631-1.168,5.574-2.2c0.942-1.032,11.333-9.323,14.294-8.158c2.958,1.165,6.506,1.165,8.15-0.825
				c1.644-1.993,10.82-4.473,15.096-5.35c4.275-0.876,8.456,0.224,11.356,2.249c2.9,2.023,5.015,2.687,7.509,2.67
				c2.495-0.016-5.559,13.538-14.537,10.903c-8.979-2.635-10.746-1.307-18.209,1.658c-7.462,2.965-12.419,2.711-16.915,2.679
				c-4.495-0.036-1.208-1.516-10.295,3.294C703.405,1149.08,690.214,1149.134,690.214,1149.134z"></path>
        <linearGradient id="SVGID_88_" gradientUnits="userSpaceOnUse" x1="814.4902" y1="1176.5508" x2="834.142" y2="1107.9452">
          <stop offset="0" style="stop-color:#9C1C2D"></stop>
          <stop offset="1" style="stop-color:#E88B8D"></stop>
        </linearGradient>
        <path fill="url(#SVGID_88_)" d="M792.822,1122.51c-5.757,3.209-4.914,11.496-0.346,11.117c4.564-0.378,4.23,0.106,10.35,3.202
				c6.123,3.1,5.598,4.949,14.185,4.063c8.588-0.884,15.982,2.358,21.238,6.15c5.26,3.792,17.872,3.776,22.29,3.436
				c4.422-0.341-5.738-2.954-13.382-8.745c-7.645-5.79-8.229-5.961-14.448-7.361c-6.223-1.399-8.743-6.552-17.038-10.649
				c-8.298-4.097-16.896-2.388-17.668-1.029C797.229,1124.056,794.333,1121.669,792.822,1122.51z"></path>
      </g>
    </g>
  </g>
  <g id="Layer_3" transform="matrix(1, 0, 0, 1, -3, 0)"></g>
</svg>