<svg xmlns="http://www.w3.org/2000/svg" viewBox="0 0 500 500">
  <defs fill="#FE4365"/>
  <path d="M 136.402 308.529 L 145.631 317.613 C 148.962 320.539 152.6 323.091 156.479 325.227 C 151.406 320.667 145.912 313.762 139.993 304.521 L 131.682 290.275 C 132.054 297.088 133.629 303.175 136.402 308.529 M 118.926 214.756 C 154.44 198.358 182.78 174.358 203.967 142.748 C 219.038 120.11 229.822 94.751 236.302 66.66 C 222.685 91.978 204.127 119.473 180.648 149.168 C 157.016 178.99 136.447 200.855 118.926 214.756 M 94.902 223.989 L 93.211 211.154 C 89.224 244.84 95.704 273.14 112.655 296.058 C 118.714 304.273 125.715 311.21 133.649 316.836 C 139.664 321.116 144.646 323.745 148.589 324.731 C 128.628 315.341 113.36 293.261 102.793 258.513 C 99.507 247.613 96.874 236.107 94.902 223.989 M 167.187 71.665 L 141.476 90.051 C 158.102 68.912 176.111 54.962 195.507 48.198 C 205.365 44.768 217.019 43.269 230.459 43.694 C 196.501 34.252 165.8 43.501 138.374 71.453 C 128.227 81.744 118.337 94.824 108.715 110.689 C 102.981 120.13 96.056 132.982 87.929 149.236 C 94.83 127.159 112.47 96.635 140.835 57.643 C 115.147 81.784 97.719 106.982 88.562 133.238 C 82.034 151.981 79.947 170.463 82.291 188.688 C 83.185 181.074 88.378 166.94 97.864 146.274 C 102.652 135.935 107.329 126.358 111.881 117.529 C 103.802 134.953 98.681 148.39 96.525 157.827 C 93.099 172.575 92.389 190.419 94.409 211.37 C 98.869 186.761 104.556 165.882 111.461 148.739 C 117.191 134.553 123.911 122.503 131.61 112.596 C 126.352 119.737 121.018 134.276 115.616 156.209 C 112.234 169.966 108.499 188.356 104.416 211.37 C 106.624 201.319 116.201 184.388 133.156 160.577 C 146.309 142.071 160.122 124.434 174.585 107.667 C 171.343 120.25 161.689 137.819 145.631 160.364 C 137.224 172.102 127.386 185.07 116.109 199.252 C 143.115 184.597 169.936 156.096 196.565 113.726 C 209.862 92.539 220.449 72.819 228.344 54.541 C 224.304 58.585 214.951 66.283 200.3 77.648 L 152.744 114.007 C 156.451 105.078 162.891 94.703 172.048 82.866 C 178.624 74.322 184.876 67.081 190.79 61.17 C 182.571 63.278 174.705 66.776 167.187 71.665 M 317.187 176.005 C 315.304 195.873 311.336 217.032 305.277 239.486 C 294.942 277.72 281.229 304.369 264.133 319.449 C 261.176 322.034 258.122 324.262 254.973 326.141 C 258.499 324.121 261.921 321.949 265.255 319.585 C 281.373 308.08 294.381 292.7 304.287 273.44 C 314.197 254.137 319.415 233.242 319.932 210.737 C 319.559 204.778 319.367 199.444 319.367 194.747 L 319.435 193.549 C 318.966 187.771 318.217 181.924 317.187 176.005 M 245.667 72.855 C 259.902 103.199 269.115 128.666 273.286 149.236 C 276.296 164.031 278.011 186.176 278.432 215.67 C 278.528 222.759 277.774 231.078 276.18 240.608 C 274.44 250.666 272.256 258.913 269.627 265.337 L 247.086 313.322 C 267.187 292.09 279.89 268.182 285.196 241.594 C 289.757 218.719 289.027 192.443 283.016 162.765 C 279.538 145.661 274.42 128.546 267.656 111.394 L 245.667 72.855 M 243.912 44.747 C 251.991 50.618 259.108 57.387 265.255 65.045 C 270.048 71.056 274.44 77.985 278.432 85.831 C 287.216 103.343 293.912 124.101 298.513 148.102 C 302.736 169.946 304.432 189.838 303.582 207.779 C 309.785 183.03 311.452 159.118 308.587 136.059 C 304.127 100.033 288.843 71.216 262.723 49.608 L 244.617 43.481 L 243.912 44.747 M 232.643 31.928 C 225.029 23.188 217.443 18.816 209.882 18.816 L 194.385 17.766 C 186.823 17.722 181.045 19.265 177.053 22.414 C 192.081 21.104 204.339 21.549 213.825 23.761 C 220.497 25.352 226.937 28.269 233.136 32.497 L 232.643 31.928 M 240.39 42.355 L 240.177 42.002 L 239.616 41.794 L 240.39 42.355 M 256.664 33.403 C 253.049 33.403 250.18 34.068 248.068 35.374 L 253.85 37.069 C 262.394 40.031 270.076 45.008 276.885 52.001 L 281.746 57.507 L 280.051 54.117 C 278.267 50.646 274.841 46.467 269.768 41.586 C 264.085 36.128 259.717 33.403 256.664 33.403 M 127.875 216.439 C 124.4 217.806 119.656 219.096 113.645 220.322 L 105.682 221.729 L 104.343 222.29 C 103.273 222.795 102.332 223.544 101.598 224.474 C 99.202 227.343 98.733 231.431 100.184 236.733 C 101.033 239.694 103.542 244.471 107.726 251.043 L 117.375 266.395 L 124.569 279.499 C 127.242 284.152 129.586 287.694 131.61 290.135 L 131.75 290.275 C 143.868 304.842 155.798 317.012 167.54 326.774 L 160.002 326.999 C 164.085 328.91 168.457 330.389 173.106 331.427 L 173.178 331.214 L 173.106 332.553 L 173.034 332.761 L 172.26 332.902 C 166.013 332.902 159.697 330.93 153.31 326.999 L 144.293 326.846 L 162.823 338.187 C 156.808 337.017 150.064 334.004 142.598 329.171 L 139.011 326.702 L 136.05 326.634 L 139.853 330.16 C 145.583 335.51 151.386 339.197 157.257 341.217 C 150.116 340.087 144.878 338.187 141.548 335.51 L 141.191 335.51 C 135.645 335.51 130.059 334.873 124.424 333.607 C 117.66 332.064 112.026 329.78 107.513 326.774 C 104.652 325.768 101.911 324.446 99.338 322.835 L 107.016 331.283 C 110.118 334.476 113.456 337.153 117.027 339.313 C 111.669 339.313 103.919 333.19 93.776 320.932 C 87.296 313.129 80.179 303.247 72.433 291.265 C 74.028 294.743 76.917 302.245 81.097 313.742 C 85.513 324.31 90.205 331.491 95.187 335.302 C 92.321 335.302 88.162 331.054 82.716 322.546 C 77.827 314.844 73.907 307.09 70.95 299.3 C 68.554 293.004 66.39 284.997 64.47 275.272 C 62.446 265.033 61.441 256.609 61.441 249.985 C 61.441 249.368 61.533 249.063 61.717 249.063 L 61.789 249.063 L 61.649 248.15 C 60.839 243.313 60.202 238.448 59.745 233.563 L 59.745 235.258 C 57.585 216.183 59.629 189.955 65.877 156.553 L 68.201 144.375 C 64.678 161.001 61.837 178.425 59.677 196.643 C 53.009 252.826 57.117 292.231 72.008 314.868 C 76.42 325.107 82.083 333.883 88.987 341.217 L 88.987 341.569 C 76.304 335.182 66.462 321.024 59.465 299.087 C 54.063 282.176 51.362 265.526 51.362 249.139 C 53.899 204.61 55.446 178.477 56.015 170.723 C 59.677 135.963 69.043 106.537 84.122 82.441 C 97.226 61.486 113.877 45.597 134.074 34.749 C 144.97 28.926 156.127 24.907 167.54 22.695 C 186.09 14.103 203.915 12.416 221.018 17.626 C 228.295 19.882 234.146 23.144 238.554 27.424 C 240.911 29.676 242.618 31.976 243.704 34.324 L 244.902 32.986 C 247.058 31.01 249.879 30.048 253.354 30.097 C 261.577 30.241 269.415 35.354 276.885 45.457 C 278.905 47.901 282.239 53.295 286.887 61.659 C 291.347 69.689 293.58 74.085 293.58 74.835 L 293.58 75.468 L 293.443 75.608 C 303.818 95.292 312.11 122.27 318.313 156.553 C 320 167.269 321.295 177.58 322.188 187.486 L 325.073 219.898 C 325.963 231.687 326.412 242.371 326.412 251.957 C 326.412 258.809 324.953 268.651 322.044 281.471 C 317.724 300.454 311.661 314.54 303.87 323.745 C 311.853 311.674 317.323 297.492 320.285 281.198 C 321.691 273.3 322.401 265.385 322.401 257.447 L 322.541 249.204 L 322.401 241.105 C 320.609 259.563 316.758 275.957 310.843 290.275 C 305.814 302.393 299.098 313.438 290.69 323.392 C 286.887 327.912 280.171 334.693 270.545 343.753 C 270.73 342.904 273.459 338.468 278.716 330.437 C 282.519 324.706 284.916 319.565 285.901 315.013 C 282.944 320.218 279.706 324.706 276.18 328.461 C 271.904 333.026 266.666 337.129 260.471 340.8 L 255.814 342.275 L 251.59 342.98 C 254.267 341.706 258.283 338.047 263.644 331.984 L 273.362 320.154 C 269.371 323.44 265.472 326.281 261.665 328.674 C 254.432 333.234 246.048 337.274 236.519 340.8 L 231.938 343.894 L 234.755 341.429 L 229.329 343.261 L 229.117 343.052 C 229.117 342.86 231.91 341.497 237.5 338.965 C 244.589 332.437 250.088 326.422 253.987 320.932 L 250.813 323.604 C 246.822 326.794 243.656 328.461 241.303 328.606 C 244.269 327.015 246.545 324.919 248.136 322.338 L 249.619 319.032 C 247.222 320.755 244.429 322.43 241.235 324.025 C 234.844 327.271 229.678 328.674 225.735 328.257 C 230.716 324.586 233.794 322.098 234.968 320.783 C 235.577 320.13 235.669 319.842 235.244 319.946 L 219.676 321.841 C 226.488 316.347 234.423 307.779 243.491 296.13 C 251.755 285.462 256.499 278.305 257.718 274.642 C 263.216 264.64 266.902 250.033 268.782 230.818 C 270.237 216.251 270.521 206.349 269.627 201.083 L 269.135 186.152 C 268.618 177.095 266.951 168.443 264.133 160.224 C 267.139 169.625 267.636 179.836 265.616 190.872 C 263.54 201.957 259.577 210.268 253.706 215.814 C 261.312 205.102 263.472 189.269 260.186 168.327 C 259.156 161.659 257.605 154.894 255.538 148.037 C 254.127 143.241 253.117 140.243 252.508 139.013 C 250.536 135.21 248.28 131.343 245.744 127.387 L 245.531 127.816 C 245.86 122.559 245.579 116.92 244.686 110.897 C 244.028 106.537 243.067 102.217 241.8 97.941 L 240.109 92.868 C 236.731 105.315 229.518 119.874 218.477 136.544 C 207.722 152.806 194.642 167.642 179.237 181.074 C 164.63 193.705 147.511 205.499 127.875 216.439" style="fill: #fe4365; fill-opacity: 1; fill-rule: nonzero; stroke: none;"/>
  <path d="M 180.648 149.168 C 204.127 119.473 222.685 91.978 236.302 66.66 C 229.822 94.751 219.038 120.11 203.967 142.748 C 182.78 174.358 154.44 198.358 118.926 214.756 C 136.447 200.855 157.016 178.99 180.648 149.168 M 190.79 61.17 C 184.876 67.081 178.624 74.322 172.048 82.866 C 162.891 94.703 156.451 105.078 152.744 114.007 L 200.3 77.648 C 214.951 66.283 224.304 58.585 228.344 54.541 C 220.449 72.819 209.862 92.539 196.565 113.726 C 169.936 156.096 143.115 184.597 116.109 199.252 C 127.386 185.07 137.224 172.102 145.631 160.364 C 161.689 137.819 171.343 120.25 174.585 107.667 C 160.122 124.434 146.309 142.071 133.156 160.577 C 116.201 184.388 106.624 201.319 104.416 211.37 C 108.499 188.356 112.234 169.966 115.616 156.209 C 121.018 134.276 126.352 119.737 131.61 112.596 C 123.911 122.503 117.191 134.553 111.461 148.739 C 104.556 165.882 98.869 186.761 94.409 211.37 C 92.389 190.419 93.099 172.575 96.525 157.827 C 98.681 148.39 103.802 134.953 111.881 117.529 C 107.329 126.358 102.652 135.935 97.864 146.274 C 88.378 166.94 83.185 181.074 82.291 188.688 C 79.947 170.463 82.034 151.981 88.562 133.238 C 97.719 106.982 115.147 81.784 140.835 57.643 C 112.47 96.635 94.83 127.159 87.929 149.236 C 96.056 132.982 102.981 120.13 108.715 110.689 C 118.337 94.824 128.227 81.744 138.374 71.453 C 165.8 43.501 196.501 34.252 230.459 43.694 C 217.019 43.269 205.365 44.768 195.507 48.198 C 176.111 54.962 158.102 68.912 141.476 90.051 L 167.187 71.665 C 174.705 66.776 182.571 63.278 190.79 61.17 M 191.428 187.278 L 176.977 196.222 C 164.771 203.367 154.343 208.505 145.7 211.65 C 143.303 212.548 140.065 213.414 135.974 214.259 C 132.082 215.105 129.378 215.83 127.875 216.439 C 147.511 205.499 164.63 193.705 179.237 181.074 C 194.642 167.642 207.722 152.806 218.477 136.544 C 229.518 119.874 236.731 105.315 240.109 92.868 L 241.8 97.941 C 243.067 102.217 244.028 106.537 244.686 110.897 C 245.579 116.92 245.86 122.559 245.531 127.816 C 245.11 131.142 243.019 136.544 239.264 144.014 C 236.022 150.454 233.461 154.914 231.586 157.399 L 221.226 171.99 C 214.418 181.391 208.547 189.041 203.614 194.96 C 205.213 191.906 209.317 184.621 215.941 173.112 C 220.076 165.882 221.908 162.123 221.439 161.839 L 221.439 161.779 C 224.024 156.697 229.257 143.004 237.148 120.707 C 233.108 129.247 228.175 138.412 222.353 148.178 C 210.703 167.814 200.396 180.846 191.428 187.278" style="fill: #f03356; fill-opacity: 1; fill-rule: nonzero; stroke: none;"/>
  <path d="M 131.682 290.275 L 139.993 304.521 C 145.912 313.762 151.406 320.667 156.479 325.227 C 152.6 323.091 148.962 320.539 145.631 317.613 L 136.402 308.529 C 133.629 303.175 132.054 297.088 131.682 290.275 M 102.793 258.513 C 113.36 293.261 128.628 315.341 148.589 324.731 C 144.646 323.745 139.664 321.116 133.649 316.836 C 125.715 311.21 118.714 304.273 112.655 296.058 C 95.704 273.14 89.224 244.84 93.211 211.154 L 94.902 223.989 C 96.874 236.107 99.507 247.613 102.793 258.513 M 319.435 193.549 L 319.367 194.747 C 319.367 199.444 319.559 204.778 319.932 210.737 C 319.415 233.242 314.197 254.137 304.287 273.44 C 294.381 292.7 281.373 308.08 265.255 319.585 C 261.921 321.949 258.499 324.121 254.973 326.141 C 258.122 324.262 261.176 322.034 264.133 319.449 C 281.229 304.369 294.942 277.72 305.277 239.486 C 311.336 217.032 315.304 195.873 317.187 176.005 C 318.217 181.924 318.966 187.771 319.435 193.549 M 267.656 111.394 C 274.42 128.546 279.538 145.661 283.016 162.765 C 289.027 192.443 289.757 218.719 285.196 241.594 C 279.89 268.182 267.187 292.09 247.086 313.322 L 269.627 265.337 C 272.256 258.913 274.44 250.666 276.18 240.608 C 277.774 231.078 278.528 222.759 278.432 215.67 C 278.011 186.176 276.296 164.031 273.286 149.236 C 269.115 128.666 259.902 103.199 245.667 72.855 L 267.656 111.394 M 244.617 43.481 L 262.723 49.608 C 288.843 71.216 304.127 100.033 308.587 136.059 C 311.452 159.118 309.785 183.03 303.582 207.779 C 304.432 189.838 302.736 169.946 298.513 148.102 C 293.912 124.101 287.216 103.343 278.432 85.831 C 274.44 77.985 270.048 71.056 265.255 65.045 C 259.108 57.387 251.991 50.618 243.912 44.747 L 244.617 43.481 M 59.745 235.258 C 60.074 255.872 61.108 271.537 62.843 282.248 C 64.823 294.415 67.876 305.283 72.008 314.868 C 57.117 292.231 53.009 252.826 59.677 196.643 C 61.837 178.425 64.678 161.001 68.201 144.375 L 65.877 156.553 C 59.629 189.955 57.585 216.183 59.745 235.258" style="fill: #f03356; fill-opacity: 1; fill-rule: nonzero; stroke: none;"/>
  <path d="M 195.018 167.405 L 206.223 154.942 C 217.115 141.834 225.574 128.57 231.586 115.137 C 229.377 125.789 224.324 137.442 216.438 150.073 C 198.961 178.025 172.753 197.917 137.809 209.743 L 149.362 202.357 C 155.097 198.695 160.094 195.168 164.37 191.786 C 177.382 181.455 187.593 169.501 195.018 155.924 C 191.027 161.326 184.17 167.95 174.444 175.789 C 165.849 182.745 156.712 189.345 147.038 195.593 C 144.501 197.284 138.398 200.835 128.72 206.225 C 120.826 210.697 113.552 215.365 106.88 220.242 L 146.689 188.051 C 162.418 174.715 175.338 162.22 185.437 150.57 C 195.627 138.829 204.997 126.59 213.548 113.871 C 221.391 102.217 226.532 93.245 228.973 86.957 C 222.918 104.754 216.951 120.531 211.084 134.292 C 203.097 153.035 196.216 165.554 190.438 171.845 L 195.018 167.405 M 174.941 132.248 C 150.232 170.811 127.546 197.492 106.88 212.288 C 110.543 208.629 127.386 186.268 157.397 145.224 C 180.6 113.518 195.796 93.245 202.977 84.42 C 195.227 99.168 185.885 115.113 174.941 132.248 M 144.714 73.633 C 129.169 90.92 118.954 107.379 114.065 123.023 C 125.623 110.06 135.204 100.971 142.814 95.757 C 147.463 92.563 154.836 88.288 164.935 82.934 C 156.996 95.196 148.28 109.519 138.795 125.913 C 129.918 141.125 123.603 152.542 119.844 160.152 C 131.301 143.946 140.746 131.343 148.168 122.322 C 149.671 120.483 154.155 115.417 161.621 107.098 C 168.481 99.352 175.198 92.916 181.774 87.803 C 187.224 83.527 191.616 80.822 194.946 79.696 C 180.716 94.727 166.085 111.049 151.057 128.666 C 121.231 163.566 104.199 188.099 99.975 202.285 C 105.377 182.18 112.326 163.766 120.826 147.052 C 127.875 133.002 136.611 119.004 147.038 105.058 C 139.524 110.128 131.469 117.854 122.874 128.233 C 105.73 149.043 94.549 172.791 89.336 199.472 C 90.041 189.133 90.795 180.653 91.592 174.033 C 93.283 160.504 96.128 148.082 100.116 136.765 C 111.436 104.914 133.605 76.806 166.622 52.43 C 159.813 57.928 152.512 64.997 144.714 73.633 M 201.638 28.474 C 205.349 29.323 210.094 30.918 215.873 33.266 C 208.166 31.768 201.382 30.942 195.507 30.802 L 173.599 32.353 C 156.315 34.793 141.424 40.335 128.933 48.971 C 116.346 57.671 107.185 68.844 101.454 82.517 C 88.586 113.33 82.058 146.671 81.87 182.561 C 81.634 231.126 94.293 274.294 119.844 312.047 C 108.098 298.434 98.004 282.693 89.548 264.848 C 77.334 239.205 71.587 214.303 72.288 190.163 C 71.443 199.937 71.607 211.114 72.777 223.701 C 74.284 240.287 77.314 255.599 81.87 269.641 C 94.65 308.901 117.051 332.501 149.082 340.439 C 130.716 340.439 114.35 333.114 99.975 318.459 C 73.907 291.878 61.064 245.497 61.441 179.315 C 64.065 149.396 70.149 123.044 79.682 100.266 C 92.229 70.443 109.793 49.496 132.387 37.422 C 140.51 33.707 148.637 31.01 156.76 29.323 C 164.935 27.584 173.835 26.714 183.465 26.714 C 190.602 26.762 196.661 27.351 201.638 28.474 M 318.453 236.524 L 317.676 253.996 L 315.496 267.87 C 314.462 273.424 312.955 278.682 310.984 283.667 C 306.423 295.304 299.03 306.625 288.787 317.613 C 281.702 325.227 273.523 332.385 264.274 339.101 L 282.944 317.902 C 294.024 304.842 301.286 294.246 304.708 286.123 C 308.375 277.484 311.288 268.511 313.452 259.21 C 315.424 249.3 317.091 241.734 318.453 236.524 M 245.956 93.501 C 253.422 109.563 258.587 122.671 261.456 132.817 C 268.169 156.353 268.922 176.895 263.709 194.459 C 265.961 178.161 264.462 158.693 259.196 136.059 C 256.006 122.482 251.59 108.296 245.956 93.501 M 278.504 64.76 C 283.016 71.757 287.288 79.107 291.327 86.813 C 304.195 111.522 312.418 135.402 315.989 158.461 C 322.657 191.714 320.285 224.763 308.872 257.591 C 298.068 288.588 282.239 311.606 261.384 326.634 L 267.864 318.743 C 271.763 314.095 275.266 309.515 278.364 305.01 C 288.226 290.776 295.912 275.48 301.402 259.146 C 317.932 210.144 314.414 154.826 290.834 93.157 C 294.453 103.62 297.198 116.756 299.078 132.533 C 301.374 151.933 301.851 171.873 300.484 192.347 C 297.058 242.936 284.138 281.711 261.737 308.673 C 271.884 287.065 278.905 262.616 282.804 235.326 C 288.671 194.375 282.567 145.593 264.482 88.997 C 266.694 95.337 271.435 107.379 278.716 125.143 C 283.557 136.925 286.727 146.627 288.226 154.237 C 289.5 160.621 290.414 167.461 290.975 174.739 C 291.496 181.828 291.588 188.288 291.255 194.11 C 291.68 189.79 292.55 183.286 293.864 174.594 C 295.599 163.041 295.932 151.324 294.854 139.438 C 293.443 124.266 291.023 109.591 287.597 95.405 C 283.557 78.353 278.812 65.606 273.362 57.154 L 278.504 64.76" style="fill: #fe4365; fill-opacity: 1; fill-rule: nonzero; stroke: none;"/>
  <path d="M 71.503 210.805 C 77.422 260.268 94.257 290.135 122.016 300.422 C 120.325 301.263 116.382 299.977 110.178 296.551 C 101.963 291.994 94.706 285.021 88.41 275.624 C 69.01 246.503 63.188 201.179 70.938 139.65 L 69.523 161.282 C 68.966 178.85 69.624 195.349 71.503 210.805 M 198.529 148.102 C 183.405 170.178 170.978 183.847 161.256 189.109 C 168.117 183.467 177.486 172.551 189.368 156.349 L 218.325 116.54 C 212.691 126.542 206.091 137.069 198.529 148.102 M 177.674 137.606 C 171.383 150.522 164.434 160.909 156.82 168.752 C 166.213 163.53 182.299 148.903 205.077 124.855 C 199.258 137.775 181.545 156.862 151.963 182.136 L 132.868 197.913 L 139.981 190.307 L 153.438 175.789 C 149.723 178.754 141.131 184.012 127.65 191.578 C 135.777 185.23 147.006 172.246 161.332 152.61 C 175.278 133.451 184.106 119.237 187.817 109.987 C 186.362 117.501 182.98 126.706 177.674 137.606 M 163.372 79.411 C 153.181 89.273 140.614 108.417 125.679 136.829 C 119.042 149.516 112.767 162.392 106.868 175.44 C 108.231 167.129 118.073 144.138 136.386 106.461 C 123.707 117.405 114.053 127.295 107.433 136.128 C 98.557 147.865 92.754 160.308 90.029 173.468 C 88.246 157.591 94.634 136.785 109.196 111.045 C 120.794 90.52 132.515 74.342 144.349 62.5 C 138.478 68.752 131.317 79.411 122.862 94.491 C 114.302 109.779 106.564 125.512 99.683 141.622 C 104.848 133.735 114.55 122.999 128.78 109.422 C 141.319 97.452 152.849 87.446 163.372 79.411 M 135.757 33.262 C 125.466 38.624 115.724 47.116 106.515 58.769 C 92.846 76.001 83.922 96.715 79.746 120.916 C 79.089 125.744 78.496 137.35 77.983 155.716 C 77.422 177.027 77.514 193.597 78.263 205.383 C 76.067 184.04 75.454 162.56 76.432 141.125 C 77.466 119.1 80.191 102.165 84.607 90.331 C 82.443 95.589 78.993 102.802 74.248 111.959 C 69.459 121.12 64.594 140.139 59.661 169.024 C 55.389 193.73 56.78 221.328 63.821 251.816 C 62.506 242.7 61.897 232.669 61.99 221.729 L 62.486 235.326 C 63.512 246.318 65.861 256.741 69.523 266.604 C 81.129 298.214 103.442 318.174 136.459 326.494 C 133.734 327.099 129.39 326.586 123.427 324.943 C 116.145 322.919 109.124 319.749 102.36 315.429 C 83.056 303.075 70.75 284.857 65.444 260.757 C 64.117 256.765 62.939 252.726 61.917 248.643 C 57.782 232.641 55.281 216.259 54.452 199.749 C 51.867 146.531 66.474 100.009 98.272 60.18 C 103.843 53.968 110.082 48.394 116.875 43.553 C 123.591 38.672 129.882 35.234 135.757 33.262 M 263.132 265.053 C 274.408 252.233 280.516 228.75 281.449 194.603 C 281.966 176.237 281.241 159.098 279.269 143.177 C 287.112 175.344 288.498 202.758 283.425 225.388 C 279.81 241.357 273.046 254.581 263.132 265.053 M 286.739 281.194 C 277.574 297.957 262.923 312.708 242.778 325.436 C 268.417 308.437 286.222 280.982 296.176 243.08 C 300.869 225.324 303.337 209.074 303.574 194.319 C 304.183 230.441 298.573 259.394 286.739 281.194 M 288.711 174.314 C 290.73 213.81 288.566 244.018 282.223 264.916 C 277.298 281.026 268.846 293.802 256.86 303.247 C 270.77 290.275 280.231 264.916 285.252 227.151 C 286.855 215.365 287.909 203.011 288.426 190.099 L 288.711 174.314 M 230.231 131.411 L 230.091 131.832 C 224.22 148.498 214.121 163.698 199.795 177.412 C 193.552 183.423 187.464 188.356 181.545 192.207 C 175.771 195.966 170.112 198.739 164.57 200.518 C 175.374 195.453 189.276 181.683 206.279 159.23 C 217.648 144.303 226.757 130.866 233.613 118.94 C 232.848 123.188 231.714 127.359 230.231 131.411 M 257.004 142.111 C 260.671 158.461 261.348 174.117 259.052 189.109 C 259.052 173.845 257.149 157.098 253.338 138.873 L 244.958 104.634 C 250.925 120.371 254.94 132.862 257.004 142.111" style="fill: #fe4365; fill-opacity: 1; fill-rule: nonzero; stroke: none;"/>
  <path d="M 151.546 183.687 L 164.863 169.806 C 157.585 175.484 148.941 181.287 138.935 187.21 C 145.231 182.04 153.895 172.082 164.935 157.335 C 176.067 142.451 182.944 131.551 185.577 124.646 C 184.727 129.343 180.62 137.354 173.25 148.671 C 166.201 159.422 159.437 168.327 152.957 175.368 C 158.267 172.27 164.394 167.998 171.343 162.556 C 180.459 155.407 188.278 148.206 194.806 140.92 C 192.502 146.322 187.268 152.826 179.093 160.432 L 156.972 179.804 L 142.814 192.139 L 151.546 183.687 M 66.867 215.602 C 67.8 229.872 69.752 242.892 72.705 254.626 C 82.243 292.155 100.116 309.843 126.324 307.683 C 110.21 310.548 97.579 307.587 88.422 298.807 C 72.405 283.491 65.099 251.588 66.506 203.055 L 66.867 215.602 M 155.99 130.133 C 138.795 150.614 127.29 165.814 121.463 175.72 C 129.029 160.969 139.103 145.593 151.691 129.58 C 164.422 113.374 173.787 104.401 179.798 102.666 C 172.425 110.845 164.486 119.994 155.99 130.133 M 111.108 136.689 C 101.338 148.995 95.351 160.432 93.143 170.996 C 96.196 150.57 102.7 131.459 112.655 113.654 C 119.844 100.787 128.155 89.65 137.601 80.261 C 132.76 85.334 126.889 94.046 119.984 106.401 C 112.799 119.265 106.483 132.112 101.033 144.928 C 105.261 138.5 113.196 129.716 124.845 118.587 C 135.088 108.821 144.525 100.642 153.169 94.07 C 145.323 101.684 136.655 115.458 127.169 135.422 C 122.284 145.661 117.564 156.513 113.007 167.978 C 113.997 161.49 122.497 141.738 138.514 108.725 C 127.526 118.207 118.389 127.536 111.108 136.689 M 303.021 176.494 C 305.654 215.193 302.079 246.643 292.313 270.835 C 287.007 283.988 280.147 294.479 271.739 302.329 C 284.611 288.191 293.704 262.989 299.01 226.73 C 300.649 215.365 301.799 203.568 302.46 191.365 L 303.021 176.494" style="fill: #fe4365; fill-opacity: 1; fill-rule: nonzero; stroke: none;"/>
</svg>