<svg width="550" height="400" xmlns="http://www.w3.org/2000/svg">
  <defs></defs>
  <path fill="#F2D6CB" d="M 278.54 42.233 L 279.349 359.983 C 279.349 359.983 249.267 359.147 227.278 342.489 C 227.278 342.489 216.678 333.682 203.675 316.698 C 203.675 316.698 184.481 294.792 178.044 237.387 L 178.044 236.233 C 178.044 236.233 175.189 238.899 169.193 233.733 C 169.193 233.733 164.607 227.983 162.435 221.233 C 160.263 214.483 155.435 202.608 153.384 199.108 C 151.332 195.608 149.522 184.608 149.28 178.108 C 149.039 171.608 150.487 161.483 157.124 159.733 C 163.762 157.983 170.159 159.983 170.159 159.983 L 174.504 162.233 C 174.504 162.233 176.676 121.358 179.211 108.733 C 181.745 96.108 184.522 94.108 192.245 82.608 C 199.969 71.108 211.555 59.733 227.969 54.858 C 244.382 49.983 270.932 42.233 270.932 42.233 L 278.54 42.233 Z"></path>
  <linearGradient id="a" gradientUnits="userSpaceOnUse" x1="274.177" y1="165.92" x2="179.751" y2="72.084">
    <stop offset="0" style="stop-color:#f2d6cb"></stop>
    <stop offset="1" style="stop-color:#f2bfb3"></stop>
  </linearGradient>
  <path fill="url(#a)" d="M277.328 42.233v9.656c-17.511 0-51.524 14.249-65.492 30.678-18.988 22.333-24.137 35.167-27.355 66.833-2.065 20.321-4.263 40.367-8.209 46.044-.73-14.796-1.499-30.062-1.71-34.251.357-6.441 2.354-41.029 4.649-52.46 2.534-12.625 5.311-14.625 13.034-26.125 7.724-11.5 21.12-26.75 37.533-31.625 16.414-4.875 41.154-8.75 41.154-8.75h6.396z"></path>
  <linearGradient id="b" gradientUnits="userSpaceOnUse" x1="260.939" y1="227.288" x2="169.307" y2="349.913">
    <stop offset="0" style="stop-color:#f2d6cb"></stop>
    <stop offset="1" style="stop-color:#f2bfb3"></stop>
  </linearGradient>
  <path fill="url(#b)" d="M277.328 359.982s-28.061-.836-50.05-17.494c0 0-10.6-8.807-23.603-25.791 0 0-19.194-21.906-25.631-79.311v-1.154l-2.253-33.166-.965-5.333 3.862-15s-3.541 34.333 14.161 55.667c17.701 21.332 20.598 22 22.528 41.332 1.931 19.334 14.483 53.334 31.862 64.334 9.484 6.002 21.166 6.939 30.09 6.5v9.416z"></path>
  <linearGradient id="c" gradientUnits="userSpaceOnUse" x1="261.823" y1="218.071" x2="163.742" y2="349.326">
    <stop offset="0" style="stop-color:#f2d6cb"></stop>
    <stop offset="1" style="stop-color:#f3e0da"></stop>
  </linearGradient>
  <path fill="url(#c)" d="M277.328 359.982s-28.061-.836-50.05-17.494c0 0-10.6-8.807-23.603-25.791 0 0-19.046-21.754-25.554-78.678l-.077-1.787-2.896-64.833s4.505 13.667 5.149 30.333c.644 16.668.322 60.666 18.344 96.334 18.022 35.666 40.229 48 58.573 54 6.124 2.002 13.288 2.963 20.114 3.355v4.561z"></path>
  <linearGradient id="d" gradientUnits="userSpaceOnUse" x1="139.634" y1="209.046" x2="169.422" y2="199.601">
    <stop offset="0" style="stop-color:#f2d6cb"></stop>
    <stop offset="1" style="stop-color:#f2bfb3"></stop>
  </linearGradient>
  <path fill="url(#d)" d="M175.228 193.483s2.896-16.5-7.965-18.75-13.758 10.75-8.689 16.75 1.931-1.5 4.104.25c2.172 1.75-1.207 1.25.482 12.5s13.276 27.75 14 17c.723-10.751-1.932-27.75-1.932-27.75z"></path>
  <linearGradient id="e" gradientUnits="userSpaceOnUse" x1="149.407" y1="179.212" x2="162.621" y2="176.06">
    <stop offset="0" style="stop-color:#f2d6cb"></stop>
    <stop offset="1" style="stop-color:#f2bfb3"></stop>
  </linearGradient>
  <path fill="url(#e)" d="M150.608 189.358s2.534-16.75 8.931-18.5 12.793 2.125 14 4.125c1.207 2-2.293-7.625-5.552-8.875-3.258-1.25-10.258-.5-13.758 4.125s-5.793 8.125-3.621 19.125z"></path>
  <linearGradient id="f" gradientUnits="userSpaceOnUse" x1="165.551" y1="159.82" x2="169.728" y2="164.243">
    <stop offset="0" style="stop-color:#f2d6cb"></stop>
    <stop offset="1" style="stop-color:#f2bfb3"></stop>
  </linearGradient>
  <path fill="url(#f)" d="M168.711 159.733c.603-.125 2.534 5.875-5.431 4.75 0 0 6.999 1.875 9.172 7.75 2.172 5.875 2.172 2 2.172 2l-.121-12-5.792-2.5z"></path>
  <linearGradient id="g" gradientUnits="userSpaceOnUse" x1="154.659" y1="159.665" x2="156.547" y2="161.665">
    <stop offset="0" style="stop-color:#f2d6cb"></stop>
    <stop offset="1" style="stop-color:#f3e0da"></stop>
  </linearGradient>
  <path fill="url(#g)" d="M158.452 158.108c4.391-1.461 5.552 4.625-.362 9s-6.396-6.75.362-9z"></path>
  <linearGradient id="h" gradientUnits="userSpaceOnUse" x1="218.947" y1="244.558" x2="230.54" y2="191.56">
    <stop offset="0" style="stop-color:#f2d6cb"></stop>
    <stop offset="1" style="stop-color:#f3e0da"></stop>
  </linearGradient>
  <path fill="url(#h)" d="M259.79 212.066c-.606-12.358-34.437 5.334-52.459-3s-26.068 12 1.931 28.666c27.999 16.668 51.493-6 50.528-25.666z"></path>
  <linearGradient id="i" gradientUnits="userSpaceOnUse" x1="266.95" y1="342.732" x2="266.95" y2="314.305">
    <stop offset="0" style="stop-color:#f2d6cb"></stop>
    <stop offset="1" style="stop-color:#f3e0da"></stop>
  </linearGradient>
  <path fill="url(#i)" d="M256.57 335.566c0 5.615 9.295 10.166 20.758 10.166V325.4c-11.463 0-20.758 4.551-20.758 10.166z"></path>
  <linearGradient id="j" gradientUnits="userSpaceOnUse" x1="250.405" y1="142.051" x2="250.405" y2="67.628">
    <stop offset="0" style="stop-color:#f2d6cb"></stop>
    <stop offset="1" style="stop-color:#f3e0da"></stop>
  </linearGradient>
  <path fill="url(#j)" d="M277.328 138.223c-6.305-.68-12.208 1.366-29.124-.649-23.494-2.798-31.862-12.59-18.023-30.216 9.555-12.169 29.637-26.625 47.147-26.625v57.49z"></path>
  <path fill="#A93F3F" d="M 277.328 358.488 C 267.057 358.259 254.587 355.961 240.787 349.049 C 210.893 334.078 197.083 307.219 188.392 285.492 C 179.257 262.654 176.273 197.587 176.273 177.733 C 176.273 175.715 176.236 173.312 176.194 170.584 C 175.832 147.134 175.077 112.839 195.359 79.704 C 211.993 52.524 256.166 43.239 277.328 43.305 L 277.328 40.232 C 255.652 40.051 209.713 48.924 192.104 77.694 C 174.113 107.09 173.109 134.042 173.184 159.91 C 169.178 157.535 161.618 154.497 154.39 159.486 C 142.207 167.898 147.748 192.241 154.274 203.507 C 157.375 208.859 159.078 214.913 160.582 220.253 C 162.364 226.587 163.904 232.058 167.275 235.112 C 169.398 237.036 172.062 237.557 174.33 237.557 C 175.158 237.557 175.921 237.485 176.597 237.387 C 178.53 256.967 181.46 275.996 185.718 286.641 C 193.912 307.127 208.406 336.164 239.528 351.75 C 253.804 358.9 266.708 361.273 277.329 361.5 L 277.329 358.488 L 277.328 358.488 Z M 155.997 161.981 C 163.069 157.101 170.536 161.504 173.205 163.429 C 173.228 166.026 173.266 168.44 173.299 170.632 L 173.31 171.344 C 171.512 168.076 168.992 165.735 165.94 164.662 C 161.736 163.184 157.234 164.511 153.896 168.208 C 152.358 169.91 151.188 171.987 150.299 174.025 C 150.771 168.821 152.5 164.396 155.997 161.981 L 155.997 161.981 Z M 169.182 232.854 C 166.447 230.375 165.018 225.295 163.362 219.415 C 161.81 213.897 160.05 207.645 156.758 201.962 C 153.815 196.881 151.45 189.795 150.551 182.891 L 150.687 182.912 C 150.699 182.831 151.927 174.779 156.011 170.258 C 158.589 167.404 161.869 166.401 165.01 167.503 C 169.447 169.062 172.625 174.475 173.305 181.63 L 173.407 181.62 C 173.447 184.591 173.528 188.088 173.658 191.987 C 172.097 188.734 169.26 185.836 164.125 185.234 C 164.125 185.234 174.263 194.734 172.09 198.734 C 169.918 202.734 167.745 207.984 168.711 210.484 C 168.711 210.484 171.918 208.611 174.41 208.701 C 174.887 217.28 175.52 225.85 176.31 234.406 C 174.341 234.705 171.286 234.76 169.182 232.854 L 169.182 232.854 Z"></path>
  <path fill="#F2D6CB" d="M 277.328 47.486 L 277.328 356.346 C 277.328 356.346 305.302 355.529 327.221 339.253 C 327.221 339.253 337.789 330.647 350.751 314.052 C 350.751 314.052 369.884 292.647 376.301 236.557 L 376.301 235.429 C 376.301 235.429 379.145 238.034 385.124 232.986 C 385.124 232.986 389.696 227.368 391.862 220.772 C 394.027 214.177 398.839 202.574 400.885 199.154 C 402.93 195.734 404.735 184.986 404.975 178.635 C 405.216 172.283 403.773 162.39 397.155 160.68 C 390.539 158.97 384.163 160.924 384.163 160.924 L 379.831 163.123 C 379.831 163.123 377.666 123.184 375.14 110.848 C 372.614 98.512 369.845 96.558 362.146 85.321 C 354.446 74.084 342.897 62.969 326.536 58.206 C 310.174 53.443 283.706 45.87 283.706 45.87 L 277.328 47.486 Z" style=""></path>
  <linearGradient id="k" gradientUnits="userSpaceOnUse" x1="199.564" y1="165.769" x2="105.55" y2="72.344" gradientTransform="matrix(-1 0 0 1 480.194 0)">
    <stop offset="0" style="stop-color:#f2d6cb"></stop>
    <stop offset="1" style="stop-color:#f2bfb3"></stop>
  </linearGradient>
  <path fill="url(#k)" d="M283.725 42.233s23.776 4.125 40.189 9 30.774 19.875 38.498 31.375c7.725 11.5 10.501 13.5 13.035 26.125 2.294 11.431 4.291 46.019 4.648 52.46-.212 4.189-.979 19.455-1.709 34.251-3.946-5.678-6.146-25.723-8.21-46.044-3.22-31.667-8.368-44.5-27.356-66.833-13.967-16.429-47.981-30.678-65.492-30.678v-9.656h6.397z"></path>
  <linearGradient id="l" gradientUnits="userSpaceOnUse" x1="186.477" y1="227.288" x2="94.845" y2="349.913" gradientTransform="matrix(-1 0 0 1 480.194 0)">
    <stop offset="0" style="stop-color:#f2d6cb"></stop>
    <stop offset="1" style="stop-color:#f2bfb3"></stop>
  </linearGradient>
  <path fill="url(#l)" d="M277.328 350.566c8.924.439 20.605-.498 30.092-6.5 17.378-11 29.93-45 31.861-64.334 1.931-19.332 4.827-20 22.527-41.332 17.7-21.334 14.161-55.667 14.161-55.667l3.861 15-.966 5.333-2.253 33.166v1.154c-6.436 57.404-25.63 79.311-25.63 79.311-13.003 16.984-23.604 25.791-23.604 25.791-21.989 16.658-50.051 17.494-50.051 17.494v-9.416z"></path>
  <linearGradient id="m" gradientUnits="userSpaceOnUse" x1="187.361" y1="218.071" x2="89.28" y2="349.326" gradientTransform="matrix(-1 0 0 1 480.194 0)">
    <stop offset="0" style="stop-color:#f2d6cb"></stop>
    <stop offset="1" style="stop-color:#f3e0da"></stop>
  </linearGradient>
  <path fill="url(#m)" d="M277.328 355.422c6.827-.393 13.99-1.354 20.114-3.355 18.344-6 40.552-18.334 58.573-54 18.022-35.668 17.7-79.666 18.345-96.334.644-16.666 5.148-30.333 5.148-30.333l-2.896 64.833-.076 1.787c-6.507 56.924-25.554 78.678-25.554 78.678-13.003 16.984-23.604 25.791-23.604 25.791-21.989 16.658-50.051 17.494-50.051 17.494v-4.561z"></path>
  <linearGradient id="n" gradientUnits="userSpaceOnUse" x1="65.171" y1="209.045" x2="94.959" y2="199.6" gradientTransform="matrix(-1 0 0 1 480.194 0)">
    <stop offset="0" style="stop-color:#f2d6cb"></stop>
    <stop offset="1" style="stop-color:#f2bfb3"></stop>
  </linearGradient>
  <path fill="url(#n)" d="M379.43 193.483s-2.896-16.5 7.965-18.75c10.862-2.25 13.759 10.75 8.689 16.75-5.068 6-1.931-1.5-4.103.25-2.173 1.75 1.206 1.25-.483 12.5s-13.275 27.75-13.999 17c-.725-10.751 1.931-27.75 1.931-27.75z"></path>
  <linearGradient id="o" gradientUnits="userSpaceOnUse" x1="74.946" y1="179.212" x2="88.159" y2="176.061" gradientTransform="matrix(-1 0 0 1 480.194 0)">
    <stop offset="0" style="stop-color:#f2d6cb"></stop>
    <stop offset="1" style="stop-color:#f2bfb3"></stop>
  </linearGradient>
  <path fill="url(#o)" d="M404.049 189.358s-2.534-16.75-8.931-18.5-12.793 2.125-13.999 4.125 2.293-7.625 5.552-8.875c3.258-1.25 10.258-.5 13.759 4.125 3.499 4.625 5.793 8.125 3.619 19.125z"></path>
  <linearGradient id="p" gradientUnits="userSpaceOnUse" x1="91.086" y1="159.82" x2="95.263" y2="164.242" gradientTransform="matrix(-1 0 0 1 480.194 0)">
    <stop offset="0" style="stop-color:#f2d6cb"></stop>
    <stop offset="1" style="stop-color:#f2bfb3"></stop>
  </linearGradient>
  <path fill="url(#p)" d="M385.946 159.733c-.604-.125-2.534 5.875 5.432 4.75 0 0-7 1.875-9.173 7.75-2.172 5.875-2.172 2-2.172 2l.12-12 5.793-2.5z"></path>
  <linearGradient id="q" gradientUnits="userSpaceOnUse" x1="80.195" y1="159.664" x2="82.083" y2="161.663" gradientTransform="matrix(-1 0 0 1 480.194 0)">
    <stop offset="0" style="stop-color:#f2d6cb"></stop>
    <stop offset="1" style="stop-color:#f3e0da"></stop>
  </linearGradient>
  <path fill="url(#q)" d="M396.205 158.108c-4.392-1.461-5.551 4.625.362 9s6.397-6.75-.362-9z"></path>
  <linearGradient id="r" gradientUnits="userSpaceOnUse" x1="144.481" y1="244.557" x2="156.075" y2="191.559" gradientTransform="matrix(-1 0 0 1 480.194 0)">
    <stop offset="0" style="stop-color:#f2d6cb"></stop>
    <stop offset="1" style="stop-color:#f3e0da"></stop>
  </linearGradient>
  <path fill="url(#r)" d="M294.868 212.066c.604-12.358 34.436 5.334 52.459-3 18.021-8.334 26.068 12-1.931 28.666-28 16.668-51.494-6-50.528-25.666z"></path>
  <linearGradient id="s" gradientUnits="userSpaceOnUse" x1="192.487" y1="342.733" x2="192.487" y2="314.306" gradientTransform="matrix(-1 0 0 1 480.194 0)">
    <stop offset="0" style="stop-color:#f2d6cb"></stop>
    <stop offset="1" style="stop-color:#f3e0da"></stop>
  </linearGradient>
  <path fill="url(#s)" d="M298.087 335.566c0 5.615-9.295 10.166-20.759 10.166V325.4c11.464 0 20.759 4.551 20.759 10.166z"></path>
  <linearGradient id="t" gradientUnits="userSpaceOnUse" x1="175.943" y1="142.05" x2="175.943" y2="67.628" gradientTransform="matrix(-1 0 0 1 480.194 0)">
    <stop offset="0" style="stop-color:#f2d6cb"></stop>
    <stop offset="1" style="stop-color:#f3e0da"></stop>
  </linearGradient>
  <path fill="url(#t)" d="M277.328 80.733c18.345 0 37.593 14.456 47.147 26.625 13.84 17.626 5.471 27.418-18.022 30.216-16.916 2.015-22.82-.031-29.125.649v-57.49z"></path>
  <path fill="#A93F3F" d="M 274.499 361.5 C 285.353 361.273 298.534 358.9 313.123 351.75 C 344.921 336.164 359.729 307.127 368.101 286.641 C 372.454 275.996 375.447 256.967 377.422 237.387 C 378.111 237.485 378.892 237.557 379.738 237.557 C 382.056 237.557 384.778 237.036 386.946 235.112 C 390.391 232.057 391.965 226.587 393.786 220.253 C 395.321 214.913 397.061 208.858 400.229 203.507 C 406.898 192.241 412.559 167.898 400.111 159.486 C 392.726 154.497 385.002 157.535 380.908 159.91 C 380.984 134.042 381.154 107.493 362.773 78.098 C 344.781 49.328 296.648 40.052 274.5 40.232 L 274.5 43.305 C 296.122 43.239 341.256 52.524 358.252 79.704 C 378.974 112.84 378.202 147.135 377.832 170.584 C 377.79 173.312 377.753 175.715 377.753 177.733 C 377.753 197.587 374.704 262.654 365.369 285.492 C 356.49 307.219 342.379 334.078 311.835 349.049 C 297.736 355.961 284.994 358.26 274.5 358.488 L 274.5 361.5 L 274.499 361.5 Z M 404.291 174.025 C 403.381 171.987 402.186 169.91 400.615 168.208 C 397.204 164.511 392.602 163.184 388.308 164.662 C 385.19 165.735 382.615 168.076 380.779 171.344 L 380.79 170.632 C 380.825 168.44 380.862 166.027 380.887 163.429 C 383.614 161.504 391.243 157.101 398.468 161.981 C 402.04 164.396 403.808 168.821 404.291 174.025 Z M 377.714 234.404 C 378.521 225.848 379.168 217.278 379.654 208.699 C 382.201 208.609 385.478 210.482 385.478 210.482 C 386.465 207.982 384.245 202.732 382.025 198.732 C 379.805 194.732 390.164 185.232 390.164 185.232 C 384.917 185.834 382.017 188.732 380.424 191.985 C 380.557 188.086 380.641 184.589 380.682 181.618 L 380.785 181.628 C 381.48 174.473 384.727 169.06 389.261 167.501 C 392.47 166.399 395.822 167.401 398.456 170.256 C 402.627 174.777 403.883 182.829 403.895 182.91 L 404.034 182.889 C 403.115 189.792 400.699 196.879 397.691 201.96 C 394.326 207.644 392.529 213.896 390.943 219.413 C 389.252 225.294 387.79 230.374 384.997 232.852 C 382.847 234.76 379.726 234.705 377.714 234.404 Z" style=""></path>
</svg>